<?xml version="1.0" encoding="utf-8"?>
<!-- Generator: Adobe Illustrator 22.1.0, SVG Export Plug-In . SVG Version: 6.00 Build 0)  -->
<svg version="1.1" id="Ebene_1" xmlns="http://www.w3.org/2000/svg" xmlns:xlink="http://www.w3.org/1999/xlink" x="0px" y="0px"
	 viewBox="0 0 39 39" style="enable-background:new 0 0 39 39;" xml:space="preserve">
<style type="text/css">
	.product-philosophy-st0{fill:#1D1D1B;}
</style>
<title>Page 1</title>
<desc>Created with Sketch.</desc>
<path class="product-philosophy-st0" d="M29.2,35.2L29.2,35.2c0.5-0.4,0.8-0.9,1-1.4c0.2-0.7,0-1.3-0.5-1.7c-0.3-0.2-0.7-0.4-1-0.4c-1,0-1.7,1-2,1.4
	v0.1c-0.3,0.5-0.8,1.3-0.9,2c0,0.1-0.1,0.2,0,0.3c-3.3,0.6-5.4-0.6-5.7-2c-0.4-1.5,0.6-2.5,1.4-2.8c6.6-2.7,5.9-7.1,5.6-9.4v-0.1
	C27,20.7,27,20.3,27,20c0.1-1.5,1.6-2.7,1.6-2.7s0.4-0.3,0.5-0.5c0-0.2,0-0.4-0.3-0.7c-0.3-0.3-0.7-0.8-0.8-0.9l0,0
	c-0.3-0.3-1.3-1.4-2.9-1.4c-3.2,0-3.8,2.9-4,4.2c-2.3,3.3-5.7,2.2-5.9,2.2c-0.3-0.1-0.6,0-0.7,0.3l0,0c-0.1,0.1-0.1,0.3,0,0.4
	c0,0.2,0.1,0.6,0.4,1.1c-0.8,0.5-1.8,0.4-2.4,0.3c-0.1,0-0.2,0-0.3,0c-0.2,0-0.4,0-0.5,0.2c-0.2,0.2,0,0.7,0.1,1v0.1
	c0,0,1.9,4.5,6.5,4.5c3.6,0,5.1-2.4,5.6-3.8c0,0,0.8-2,0.3-2.4c-0.1-0.1-0.2-0.1-0.4-0.1c-0.1,0-0.3,0.1-0.4,0.2s-0.1,0.2-0.2,0.5
	v0.2c0,0.1,0,0.2-0.1,0.3c-0.1,0.6-0.2,1.1-0.8,1.9c-1,1.5-2.3,2.2-4.2,2.2c-3,0-4.7-2.5-5.3-3.6c0.7,0.1,1.8,0,2.5-0.5
	c0.4,0.3,0.8,0.6,1.3,0.8c0.6,0.2,1.2,0.3,1.7,0.3c1.2,0,2-0.6,2.3-0.9c0.1-0.2,0.1-0.4,0-0.6c-0.1-0.1-0.2-0.2-0.3-0.2
	c-0.2,0-0.4,0-0.6,0.2C19.6,22.7,19,23,18.3,23c-0.4,0-0.7-0.1-1.1-0.2c-0.9-0.4-1.4-0.9-1.6-1.4c0.3,0,0.6,0.1,0.9,0.1
	c1.6,0,3.8-0.5,5.4-3c0.1-0.1,0.1-0.3,0.1-0.4l0,0c0-0.5,0.3-3.2,2.8-3.2c0.9,0,1.7,0.5,2.5,1.6c0,0.1,0.1,0.1,0.1,0.2
	c0.1,0.1,0.1,0.2,0.1,0.2c-0.7,0.7-1.7,1.7-1.8,3.2c0,0.4,0,0.9,0.1,1.4l0,0c0.3,2.2,0.9,6-5,8.3c-1.9,0.8-2.4,2.7-1.9,4.2
	c0.6,1.8,2.5,2.9,5.2,2.9c0.8,0,1.4-0.1,2.2-0.3c0,0,0.1,0,0.1,0.1c0.4,1.1,2.2,2,3.5,2c1,0,1.6-0.5,1.7-1.3c0.1-0.5-0.1-1-0.4-1.3
	C30.9,35.5,30.1,35.2,29.2,35.2z M29.3,33.4C29.1,34,28.1,35,27,35.3c0,0,0-0.1,0-0.2c0.2-1.1,1.1-2.3,1.8-2.3c0.1,0,0.2,0,0.3,0.1
	C29.3,33,29.3,33.2,29.3,33.4z M30,37.6c-0.7,0-1.7-0.5-2.5-1.1c-0.1-0.1-0.1-0.1-0.1-0.1c0.3-0.1,0.7-0.1,1.1-0.1
	c0.9,0,1.7,0.2,2,0.6c0.1,0.1,0.2,0.3,0.2,0.4C30.7,37.3,30.7,37.6,30,37.6z M25.5,16.9c0-0.4-0.3-0.6-0.6-0.6
	c-0.4,0-0.6,0.3-0.6,0.6c0,0.4,0.3,0.6,0.6,0.6C25.3,17.5,25.5,17.2,25.5,16.9z M38.2,25.2c-0.4-0.3-0.8-0.4-1.3-0.4
	c-0.4,0.1-0.8,0.3-1.2,0.7c0-0.2,0-0.3-0.1-0.4c-0.3-1.1-1-1.6-1.9-1.4c-0.5,0.1-0.9,0.4-1.1,0.8c-0.3,0.5-0.3,1.3,0,2.1v0.1
	c0.2,0.5,0.5,1.4,1,2c0,0.1,0.1,0.2,0.2,0.2c-0.7,1.2-1.6,2.3-2.6,3.3c-0.4,0.6-0.7,1.3-0.4,1.6L31,34l0.1-0.1
	c1.5-1.3,2.8-2.8,3.8-4.5c0.1,0,0.2,0,0.2-0.1c0.2,0,0.4,0,0.6,0c1.2-0.2,2.8-1.3,3.1-2.6C38.9,26.2,38.7,25.6,38.2,25.2z
	 M37.8,26.5L37.8,26.5c-0.1,0.6-1.2,1.6-2.3,1.9c0,0,0-0.1,0-0.2c0.2-1.1,1.1-2.2,1.7-2.3h0.1c0.1,0,0.2,0,0.3,0.1
	C37.7,26.1,37.8,26.3,37.8,26.5z M34.4,27.9l-0.1-0.1c-0.6-0.8-0.9-1.8-0.7-2.5c0.1-0.3,0.2-0.4,0.4-0.5c0.1,0,0.1,0,0.2,0
	c0.1,0,0.3,0.1,0.4,0.3C34.8,25.6,34.8,26.9,34.4,27.9z M33.2,15.2c-0.4,0.4-0.5,0.8-0.5,1.3c0,0.6,0.5,1.3,1.2,1.8l0.1,0.1
	c0.4,0.3,1.2,0.9,1.9,1.1c0.1,0,0.1,0.1,0.2,0.1c0,0.5,0.1,0.9,0.1,1.4c0,1.1-0.1,2.3-0.4,3.5v0.1l0.1,0.1c0.1,0,0.1,0,0.2,0h0.1
	c0.3-0.1,0.6-0.5,0.9-1.2l0,0c0.1-0.9,0.2-1.6,0.2-2.4c0-0.6,0-1.2-0.1-2l0.1-0.1l0.1-0.1c1.1-0.5,1.9-2.4,1.7-3.6
	c-0.1-0.9-0.6-1.5-1.4-1.5c-0.5,0-1,0.1-1.3,0.5c-0.3,0.3-0.5,0.8-0.5,1.3C34.8,14.6,33.9,14.5,33.2,15.2z M35,16.2
	c0.3,0.3,0.6,0.8,0.8,1.2c0.1,0.3,0.1,0.6,0.2,0.8h-0.2c-0.9-0.3-1.7-1.1-1.9-1.7c-0.1-0.3-0.1-0.5,0.1-0.7c0.1-0.1,0.2-0.2,0.3-0.2
	C34.4,15.7,34.7,15.9,35,16.2z M36.9,17.6c-0.4-0.9-0.4-2,0-2.6c0.1-0.2,0.3-0.4,0.6-0.4c0.1,0,0.3,0,0.4,0.3
	c0.2,0.6-0.1,1.9-0.8,2.9C37,17.7,37,17.7,36.9,17.6z M27.2,8.1L27.2,8.1c-0.1,0.5,0,1,0.3,1.4c0.4,0.5,1.1,0.8,2,0.9h0.1
	c0.3,0,0.7,0.1,1.1,0.1s0.8,0,1.1-0.1c0.1,0,0.2,0,0.2-0.1c1.2,1.3,2.1,2.7,2.8,4.2v0.1h0.1c0.1,0,0.1,0,0.2,0
	c0.1,0,0.2-0.1,0.3-0.1c0.2-0.2,0.2-0.6,0-1.3c-0.7-1.3-1.6-2.6-2.6-3.7l0,0c0-0.1,0-0.2,0-0.3c0.5-0.8,0.4-2.2,0-3.2
	s-1-1.5-1.7-1.5c-0.3,0-0.5,0.1-0.7,0.2c-0.5,0.3-0.7,0.6-0.8,1.1c-0.1,0.4,0,0.8,0.2,1.3C28.3,6.7,27.4,7.1,27.2,8.1z M31.4,9.2
	l-0.1,0.1l0,0L31.4,9.2L31.4,9.2z M31.2,9.3c0,0-0.1,0-0.2,0.1c-0.3,0.1-0.6,0.1-0.9,0.1c-0.8,0-1.5-0.2-1.9-0.6
	C28.1,8.8,28,8.6,28,8.4S28.1,8,28.5,8C29.4,8,30.5,8.5,31.2,9.3z M30.4,6.1c0-0.3,0.1-0.5,0.3-0.6c0.1-0.1,0.2-0.1,0.2-0.1
	c0.2,0,0.4,0.2,0.5,0.4c0.4,0.6,0.7,1.7,0.6,2.6c0,0-0.1,0-0.1-0.1C31.1,7.8,30.5,6.8,30.4,6.1z M19.2,4.4c-0.8,0.3-1.3,0.7-1.5,1.2
	C17.5,6,17.5,6.5,17.8,7s0.8,0.8,1.4,0.8c0.1,0,0.1,0,0.2,0c0.5-0.1,1-0.3,1.5-0.7l0.1,0c0.4-0.3,1.2-0.9,1.6-1.5
	c0.1-0.1,0.1-0.2,0.1-0.3c1.5,0.2,3,0.7,4.4,1.4c0.7,0.2,1.6,0.3,1.7-0.1V6.5l-0.1-0.1c-1.9-1.1-4-1.8-6.2-2.1c0,0,0,0,0-0.1
	c0-0.6-0.3-1.3-0.9-1.9C21,1.5,20,0.8,19.1,0.9C18.6,1,18.2,1.3,18,1.7c-0.2,0.5-0.3,0.9-0.1,1.4C18.1,3.6,18.6,4.1,19.2,4.4z
	 M19,2.9c-0.2-0.2-0.2-0.4-0.1-0.7C18.9,2,19,2,19.2,1.9c0,0,0,0,0.1,0c0.6,0,1.8,0.9,2.3,2c0,0-0.1,0-0.2,0
	C20.4,3.9,19.4,3.4,19,2.9z M18.6,6.1c0.2-0.5,1.1-0.9,2.1-1c0.2,0,0.3,0,0.5,0c0.1,0,0.3,0,0.4,0c0,0,0,0.1-0.1,0.1
	C20.9,6,20,6.6,19.3,6.7c-0.3,0-0.5,0-0.7-0.2C18.6,6.3,18.5,6.2,18.6,6.1z M8.9,8.5c0.2,0,0.4,0,0.6-0.1C9.4,8.8,9.2,9.1,9.2,9.3
	c-0.2,0.8,0.2,1.5,0.9,1.8c0.2,0.1,0.5,0.2,0.7,0.2c0.9,0,1.6-0.7,1.9-1.9V9.3c0.1-0.5,0.4-1.5,0.4-2.2c0-0.1,0-0.2,0-0.3
	c1-0.5,2.1-0.9,3.2-1.2h0.1c0.7-0.2,1.5-0.5,1.6-0.9c0-0.1,0-0.3-0.3-0.4l0,0h-0.1c-1.8,0.3-3.6,0.9-5.3,1.8c0,0,0,0-0.1,0
	c-0.5-0.6-1.7-0.9-2.5-0.9c-1,0-1.9,0.3-2.3,0.8C7.1,6.3,7.1,6.7,7.2,7.2C7.4,8.1,8,8.5,8.9,8.5z M11.5,7.7c0.2-0.1,0.3-0.2,0.4-0.3
	v0.1c0,0.8-0.3,1.8-0.7,2.3c-0.1,0.2-0.4,0.3-0.6,0.3c-0.1,0-0.1,0-0.2,0c-0.2-0.1-0.3-0.2-0.3-0.4C10.2,9.2,10.7,8.4,11.5,7.7z
	 M8.2,6.6C8.4,6.4,9,6.2,9.7,6.2c0.5,0,1.1,0.1,1.6,0.3l-0.1,0.1C10.6,7.1,9.7,7.4,9,7.4c-0.3,0-0.7,0-0.8-0.4
	C8.1,6.8,8.1,6.7,8.2,6.6z M4.2,17.6c0,0.1,0,0.2,0.1,0.4c0.3,0.9,0.8,1.5,1.5,1.5c0.1,0,0.3,0,0.4-0.1c0.5-0.1,0.9-0.4,1.1-0.9
	c0.3-0.6,0.2-1.3-0.1-2.1v-0.1c-0.2-0.5-0.6-1.4-1-1.9c0-0.1-0.1-0.2-0.2-0.2c0.7-1.5,1.6-2.8,2.7-4l0.1-0.1V10
	C8.6,9.8,8.5,9.7,8.4,9.7c-0.3-0.1-0.7,0.1-1.2,0.6c-0.9,1.2-1.7,2.4-2.3,3.9H4.8c-1.3-0.2-3.3,1.1-3.7,2.4c-0.2,0.7,0,1.2,0.5,1.7
	c0.3,0.3,0.7,0.4,1.1,0.4C3.3,18.6,3.9,18.1,4.2,17.6z M4.3,15.1c0,0,0,0.1,0,0.2c-0.3,1.1-1.2,2.2-1.9,2.2c-0.1,0-0.2,0-0.3-0.1
	C1.9,17.3,1.9,17.2,2,17l0,0C2.1,16.3,3.3,15.4,4.3,15.1z M5.5,15.2l0.1,0.1c0.6,0.7,1,1.8,0.8,2.5c-0.1,0.3-0.2,0.5-0.4,0.5
	c-0.2,0.1-0.4,0.1-0.6-0.3C5.1,17.4,5.1,16.2,5.5,15.2z M5.4,15.2v-0.1V15.2L5.4,15.2z M7.2,27.6c0.6,0,1-0.3,1.3-0.8
	s0.3-0.9,0.1-1.4C8.4,24.8,7.8,24.3,7,24l-0.1-0.1c-0.5-0.2-1.4-0.5-2.1-0.6c0,0-0.1,0-0.2,0c-0.1-0.8-0.2-1.6-0.2-2.4
	c0-0.3,0-0.7,0-1.1l0,0l0,0c-0.3-0.9-0.5-1-0.6-1c-0.2,0-0.4,0.2-0.5,1.9l0,0v0.4c0,0.8,0.1,1.7,0.2,2.5l0,0c0,0-0.1,0.1-0.1,0.2
	c-1.1,0.6-1.7,2.5-1.5,3.7c0.1,0.9,0.7,1.4,1.5,1.4h0.1c0.5,0,1-0.2,1.3-0.6c0.3-0.4,0.5-0.9,0.5-1.6C5.8,27.1,6.5,27.6,7.2,27.6
	L7.2,27.6z M7.6,26.3c-0.1,0.2-0.2,0.2-0.3,0.2c-0.6,0-1.7-1-2.3-2c0,0,0,0,0-0.1c0.1,0,0.1,0,0.2,0c1,0.1,2,0.6,2.4,1.1
	C7.6,25.9,7.7,26.1,7.6,26.3z M3.9,24.8c0.4,0.8,0.5,2,0.2,2.6c-0.1,0.3-0.3,0.4-0.5,0.4s-0.4,0-0.4-0.3c-0.2-0.6,0.1-2,0.6-2.9
	C3.8,24.7,3.9,24.8,3.9,24.8z M12,32.9L12,32.9c-0.6-0.3-1.4-0.7-2.2-0.7c-0.1,0-0.2,0-0.3,0l-0.2,0.1C8,31,7,29.6,6.2,28.1V28H6.1
	c-0.2,0-0.3,0-0.3,0.1c-0.2,0.2-0.2,0.5-0.2,1.2v0.1c0.7,1.3,1.6,2.5,2.7,3.5c0,0.1-0.1,0.2-0.1,0.3c-0.6,0.6-0.7,1.7-0.6,2.6
	c0.1,1.1,0.6,2,1.2,2.3C9,38,9.2,38,9.4,38s0.4,0,0.6-0.1c0.5-0.2,0.8-0.5,1-0.9c0.1-0.2,0.1-0.5,0.1-0.8c0.5,0.3,1,0.4,1.4,0.3
	c0.4-0.1,0.6-0.3,0.9-0.7c0.3-0.5,0.3-0.9,0.2-1.4C13.4,33.9,12.8,33.3,12,32.9z M9.9,36.4c0,0.3-0.2,0.5-0.4,0.6
	c-0.1,0-0.1,0-0.2,0c-0.2,0-0.5-0.3-0.6-0.7c-0.2-0.6-0.2-1.7-0.1-2.5c0,0.1,0.1,0.1,0.2,0.2l0,0C9.6,34.7,10,35.7,9.9,36.4z
	 M12.5,35.3c-0.2,0.3-0.5,0.3-1.1-0.1c-0.6-0.4-1.2-1.1-1.5-1.8H10l0,0c1,0.1,1.9,0.7,2.3,1.2C12.5,34.9,12.6,35.1,12.5,35.3z"/>
</svg>
