<?xml version="1.0" encoding="utf-8"?>
<!-- Generator: Adobe Illustrator 22.1.0, SVG Export Plug-In . SVG Version: 6.00 Build 0)  -->
<svg version="1.1" id="Ebene_1" xmlns="http://www.w3.org/2000/svg" xmlns:xlink="http://www.w3.org/1999/xlink" x="0px" y="0px"
	 viewBox="0 0 31 28" style="enable-background:new 0 0 31 28;" xml:space="preserve">
<style type="text/css">
	.lillydoing-good-st0{fill:#1D1D1B;}
</style>
<title>Group 4</title>
<desc>Created with Sketch.</desc>
<path class="lillydoing-good-st0" d="M28,2.9l-0.1-0.1c-1.6-1.6-3.8-2.5-6.1-2.5s-4.5,0.9-6.1,2.5l-0.3,0.3L15,2.7c-1.6-1.6-3.7-2.5-6-2.5
	S4.5,1.1,2.9,2.7L2.7,2.9C1.1,4.5,0.2,6.6,0.2,9c0,2.3,0.9,4.5,2.5,6.1l12.1,12.1c0,0,0.1,0.1,0.2,0.1h0.7c0.1,0,0.1,0,0.2-0.1
	L28,15c1.6-1.6,2.5-3.8,2.5-6.1S29.6,4.5,28,2.9z M26.9,14L15.4,25.5L3.8,14C1,11.2,1,6.7,3.8,3.9l0.1-0.1C5.3,2.5,7,1.7,9,1.7
	c1.9,0,3.7,0.7,5,2.1l0.8,0.8c0,0,0.1,0.1,0.2,0.1h0.7c0.1,0,0.1,0,0.2-0.1l0.8-0.8c1.3-1.3,3.1-2.1,5-2.1s3.7,0.7,5,2.1l0.1,0.1
	C29.7,6.7,29.7,11.2,26.9,14z M25.6,4.8c-1-1-2.4-1.6-3.8-1.6C21.4,3.2,21,3.6,21,4s0.3,0.7,0.8,0.7c1,0,2,0.4,2.8,1.2L24.7,6
	c1.5,1.5,1.5,4,0,5.5c-0.3,0.3-0.3,0.8,0,1.1c0.1,0.1,0.3,0.2,0.5,0.2s0.4-0.1,0.5-0.2c2.1-2.1,2.1-5.5,0-7.6L25.6,4.8z"/>
</svg>
