<?xml version="1.0" encoding="utf-8"?>
<!-- Generator: Adobe Illustrator 22.1.0, SVG Export Plug-In . SVG Version: 6.00 Build 0)  -->
<svg version="1.1" id="Ebene_1" xmlns="http://www.w3.org/2000/svg" xmlns:xlink="http://www.w3.org/1999/xlink" x="0px" y="0px"
	 viewBox="0 0 34 31" style="enable-background:new 0 0 34 31;" xml:space="preserve">
<style type="text/css">
	.club-st0{fill:#1D1D1B;}
</style>
<title>Page 1</title>
<desc>Created with Sketch.</desc>
<g id="Clip-2">
</g>
<path class="club-st0" d="M31.7,5.5h-5.6c0.3-0.5,0.5-1.1,0.5-1.9c0-2-1.5-3.5-3.3-3.5c-3.2,0-5.4,2.8-6.4,4.6c-1-1.7-3.3-4.6-6.4-4.6
	C8.6,0,7.1,1.6,7.1,3.5c0,0.8,0.2,1.4,0.5,1.9H2.1C0.9,5.5,0,6.4,0,7.6V12c0,1.1,0.9,2,2.1,2h0.3c-0.1,0.2-0.1,0.4-0.1,0.7v13.6
	c0,1.2,0.9,2.1,2.1,2.1h25.1c1.2,0,2.1-0.9,2.1-2.1V14.7c0-0.2,0-0.5-0.1-0.7h0.3c1.2,0,2.1-0.9,2.1-2.1V7.6
	C33.8,6.4,32.9,5.5,31.7,5.5z M23.3,1.7c0.9,0,1.7,0.8,1.7,1.9c0,1.7-1.3,1.8-1.7,1.8h-5C19.3,3.9,21,1.7,23.3,1.7z M10.5,1.7
	c2.3,0,4.1,2.3,5,3.7h-5c-0.4,0-1.7-0.1-1.7-1.8C8.8,2.5,9.5,1.7,10.5,1.7z M19.4,13.3L19.4,13.3L19.4,13.3V29h-5V6.9h1.3h2.4h1.3
	V13.3z M1.4,11.9V7.6c0-0.4,0.3-0.7,0.7-0.7h8.4l0,0H13v5.8H2.1C1.7,12.6,1.4,12.3,1.4,11.9z M3.7,28.3V14.7C3.7,14.3,4,14,4.4,14
	H13v15H4.4C4,29,3.7,28.7,3.7,28.3z M30.1,14.7v13.6c0,0.4-0.3,0.7-0.7,0.7h-8.6V14h8.6C29.8,14,30.1,14.3,30.1,14.7z M32.4,11.9
	c0,0.4-0.3,0.7-0.7,0.7h-2.2l0,0h-8.6V6.9h2.5l0,0h8.4c0.4,0,0.7,0.3,0.7,0.7L32.4,11.9L32.4,11.9z"/>
</svg>
