<?xml version="1.0" encoding="UTF-8"?>
<svg width="132px" height="57px" viewBox="0 0 132 57" version="1.1" xmlns="http://www.w3.org/2000/svg" xmlns:xlink="http://www.w3.org/1999/xlink">
    <!-- Generator: Sketch 51.2 (57519) - http://www.bohemiancoding.com/sketch -->
    <title>mastercard</title>
    <desc>Created with Sketch.</desc>
    <defs></defs>
    <g id="Desktop" stroke="none" stroke-width="1" fill="none" fill-rule="evenodd">
        <g id="mastercard">
            <rect id="Rectangle-2" fill="#FFFFFF" x="0" y="0" width="132" height="57"></rect>
            <g id="Group-2" transform="translate(35.000000, 5.000000)" fill-rule="nonzero">
                <g id="Group" transform="translate(32.500000, 43.000000) scale(-1, 1) rotate(-180.000000) translate(-32.500000, -43.000000) translate(3.000000, 39.000000)" fill="#231F20">
                    <path d="M58.2752767,1.21818375 L58.2752767,1.09271082 L58.3906132,1.09271082 C58.4161086,1.09271082 58.4379618,1.09880174 58.4537447,1.10854721 C58.4683135,1.11829268 58.476812,1.13534725 58.476812,1.15605638 C58.476812,1.1767655 58.4683135,1.19260189 58.4537447,1.20234736 C58.4379618,1.21331101 58.4161086,1.21818375 58.3906132,1.21818375 L58.2752767,1.21818375 Z M58.3918272,1.30589298 C58.4513166,1.30589298 58.4974512,1.29249296 58.530231,1.26569292 C58.5630109,1.23889287 58.5787938,1.20234736 58.5787938,1.15605638 C58.5787938,1.1170745 58.5666531,1.08540172 58.5399436,1.05981986 C58.5144481,1.03545619 58.4780261,1.0196198 58.4294634,1.01352888 L58.582436,0.836892236 L58.4634573,0.836892236 L58.3214113,1.0123107 L58.2752767,1.0123107 L58.2752767,0.836892236 L58.1757231,0.836892236 L58.1757231,1.30589298 L58.3918272,1.30589298 Z M58.3614755,0.674873798 C58.4161086,0.674873798 58.4670995,0.685837451 58.5132341,0.706546575 C58.5605827,0.727255699 58.6018611,0.755273925 58.637069,0.790601254 C58.672277,0.825928583 58.7002006,0.86734683 58.7208397,0.91607418 C58.7402648,0.963583346 58.7511914,1.01474706 58.7511914,1.06956533 C58.7511914,1.1243836 58.7402648,1.17554732 58.7208397,1.22305649 C58.7002006,1.27056565 58.672277,1.31320208 58.637069,1.34852941 C58.6018611,1.38385674 58.5605827,1.41187497 58.5132341,1.43258409 C58.4670995,1.45207503 58.4161086,1.4618205 58.3614755,1.4618205 C58.3068425,1.4618205 58.2546375,1.45207503 58.2072889,1.43258409 C58.1587261,1.41187497 58.1162337,1.38385674 58.0810258,1.34852941 C58.0458178,1.31320208 58.0178942,1.27056565 57.9984691,1.22305649 C57.97783,1.17554732 57.9681174,1.1243836 57.9681174,1.06956533 C57.9681174,1.01474706 57.97783,0.963583346 57.9984691,0.91607418 C58.0178942,0.86734683 58.0458178,0.825928583 58.0810258,0.790601254 C58.1162337,0.755273925 58.1587261,0.727255699 58.2072889,0.706546575 C58.2546375,0.685837451 58.3068425,0.674873798 58.3614755,0.674873798 Z M58.3614755,1.57511159 C58.4331056,1.57511159 58.4986652,1.56171157 58.5617968,1.53491152 C58.6237143,1.50932967 58.6771333,1.47278415 58.7244819,1.42649317 C58.7706165,1.38142037 58.8070386,1.32782029 58.8337481,1.26569292 C58.8604576,1.20478373 58.8738123,1.13900181 58.8738123,1.06956533 C58.8738123,1.00012886 58.8604576,0.934346936 58.8337481,0.873437749 C58.8070386,0.812528561 58.7706165,0.758928476 58.7244819,0.712637494 C58.6771333,0.667564695 58.6237143,0.631019183 58.5617968,0.60421914 C58.4986652,0.577419098 58.4331056,0.564019076 58.3614755,0.564019076 C58.2886314,0.564019076 58.2218577,0.577419098 58.1587261,0.60421914 C58.0955946,0.631019183 58.0409615,0.667564695 57.9948269,0.712637494 C57.9486923,0.758928476 57.9122703,0.812528561 57.8855608,0.873437749 C57.8588513,0.934346936 57.8454965,1.00012886 57.8454965,1.06956533 C57.8454965,1.13900181 57.8588513,1.20478373 57.8855608,1.26569292 C57.9122703,1.32782029 57.9486923,1.38142037 57.9948269,1.42649317 C58.0409615,1.47278415 58.0955946,1.50932967 58.1587261,1.53491152 C58.2218577,1.56171157 58.2886314,1.57511159 58.3614755,1.57511159 Z M11.0601619,3.38167809 C11.0601619,4.27582496 11.6441287,5.01038976 12.5983864,5.01038976 C13.5101516,5.01038976 14.1256843,4.30749774 14.1256843,3.38167809 C14.1256843,2.45585844 13.5101516,1.75296642 12.5983864,1.75296642 C11.6441287,1.75296642 11.0601619,2.48753122 11.0601619,3.38167809 Z M15.1649267,3.38167809 L15.1649267,5.92524576 L14.0625527,5.92524576 L14.0625527,5.3076266 C13.712901,5.76566369 13.1823532,6.05315505 12.4611967,6.05315505 C11.0395227,6.05315505 9.92500806,4.93486237 9.92500806,3.38167809 C9.92500806,1.82727563 11.0395227,0.710201126 12.4611967,0.710201126 C13.1823532,0.710201126 13.712901,0.997692491 14.0625527,1.45572958 L14.0625527,0.83811042 L15.1649267,0.83811042 L15.1649267,3.38167809 Z M52.4173973,3.38167809 C52.4173973,4.27582496 53.0013641,5.01038976 53.9556218,5.01038976 C54.8686011,5.01038976 55.4829197,4.30749774 55.4829197,3.38167809 C55.4829197,2.45585844 54.8686011,1.75296642 53.9556218,1.75296642 C53.0013641,1.75296642 52.4173973,2.48753122 52.4173973,3.38167809 Z M56.5233762,3.38167809 L56.5233762,7.96813991 L55.4197881,7.96813991 L55.4197881,5.3076266 C55.0701365,5.76566369 54.5395886,6.05315505 53.8184321,6.05315505 C52.3967582,6.05315505 51.2822435,4.93486237 51.2822435,3.38167809 C51.2822435,1.82727563 52.3967582,0.710201126 53.8184321,0.710201126 C54.5395886,0.710201126 55.0701365,0.997692491 55.4197881,1.45572958 L55.4197881,0.83811042 L56.5233762,0.83811042 L56.5233762,3.38167809 Z M28.8486901,5.06277166 C29.55892,5.06277166 30.0154097,4.61569823 30.1319603,3.82875153 L27.5010743,3.82875153 C27.6188389,4.56331633 28.0631879,5.06277166 28.8486901,5.06277166 Z M28.8705433,6.05315505 C27.3845238,6.05315505 26.3452813,4.96775333 26.3452813,3.38167809 C26.3452813,1.76393007 27.4270162,0.710201126 28.9446015,0.710201126 C29.7082504,0.710201126 30.4075537,0.901455975 31.0230864,1.42283862 L30.482826,2.24267628 C30.0579021,1.90280302 29.5164276,1.71032998 29.007733,1.71032998 C28.2975031,1.71032998 27.6504047,2.04045778 27.4913618,2.95653196 L31.2561875,2.95653196 C31.2671141,3.09418672 31.2780407,3.23305967 31.2780407,3.38167809 C31.2671141,4.96775333 30.2910032,6.05315505 28.8705433,6.05315505 Z M42.1815878,3.38167809 C42.1815878,4.27582496 42.7655546,5.01038976 43.7198123,5.01038976 C44.6315775,5.01038976 45.2471101,4.30749774 45.2471101,3.38167809 C45.2471101,2.45585844 44.6315775,1.75296642 43.7198123,1.75296642 C42.7655546,1.75296642 42.1815878,2.48753122 42.1815878,3.38167809 Z M46.2863526,3.38167809 L46.2863526,5.92524576 L45.1839786,5.92524576 L45.1839786,5.3076266 C44.8331129,5.76566369 44.3037791,6.05315505 43.5826226,6.05315505 C42.1609486,6.05315505 41.0464339,4.93486237 41.0464339,3.38167809 C41.0464339,1.82727563 42.1609486,0.710201126 43.5826226,0.710201126 C44.3037791,0.710201126 44.8331129,0.997692491 45.1839786,1.45572958 L45.1839786,0.83811042 L46.2863526,0.83811042 L46.2863526,3.38167809 Z M35.9558457,3.38167809 C35.9558457,1.83823928 37.0266539,0.710201126 38.6607898,0.710201126 C39.4244387,0.710201126 39.9331334,0.880746851 40.4843203,1.31685663 L39.9549866,2.21100351 C39.5409893,1.91254849 39.1063529,1.75296642 38.62801,1.75296642 C37.7478105,1.76393007 37.1007121,2.40225835 37.1007121,3.38167809 C37.1007121,4.36109782 37.7478105,4.99942611 38.62801,5.01038976 C39.1063529,5.01038976 39.5409893,4.85080769 39.9549866,4.55235267 L40.4843203,5.44649955 C39.9331334,5.88260933 39.4244387,6.05315505 38.6607898,6.05315505 C37.0266539,6.05315505 35.9558457,4.9251169 35.9558457,3.38167809 Z M50.1689429,6.05315505 C49.5327711,6.05315505 49.1187738,5.75470003 48.8322537,5.3076266 L48.8322537,5.92524576 L47.7395923,5.92524576 L47.7395923,0.83811042 L48.8431803,0.83811042 L48.8431803,3.68987858 C48.8431803,4.53164355 49.2037586,4.99942611 49.9249152,4.99942611 C50.1483037,4.99942611 50.3814048,4.96775333 50.6145059,4.87151682 L50.9544451,5.91428211 C50.7104173,6.01051862 50.3923314,6.05315505 50.1689429,6.05315505 Z M20.6173073,5.52080875 C20.0867594,5.87164567 19.3558903,6.05315505 18.549749,6.05315505 C17.2652648,6.05315505 16.4384843,5.43553589 16.4384843,4.42444338 C16.4384843,3.59486025 17.0540169,3.08322307 18.1879567,2.923641 L18.708792,2.84933179 C19.3133979,2.76405893 19.598704,2.60447686 19.598704,2.31698549 C19.598704,1.92351214 19.1956333,1.69936633 18.442911,1.69936633 C17.6792621,1.69936633 17.1280751,1.94422126 16.7565702,2.23171263 L16.236949,1.37045672 C16.841555,0.923383283 17.6052039,0.710201126 18.4319844,0.710201126 C19.8961507,0.710201126 20.7447844,1.4021295 20.7447844,2.37058558 C20.7447844,3.26473245 20.0770469,3.73251501 18.9734588,3.89209708 L18.4538376,3.96762447 C17.9767088,4.03097003 17.5942773,4.12598836 17.5942773,4.46707981 C17.5942773,4.83984404 17.9548556,5.06277166 18.5594616,5.06277166 C19.2065599,5.06277166 19.8330192,4.81791673 20.1401784,4.62666188 L20.6173073,5.52080875 Z M34.8413311,6.05315505 C34.2051593,6.05315505 33.791162,5.75470003 33.505856,5.3076266 L33.505856,5.92524576 L32.4131945,5.92524576 L32.4131945,0.83811042 L33.5155685,0.83811042 L33.5155685,3.68987858 C33.5155685,4.53164355 33.8761468,4.99942611 34.5973033,4.99942611 C34.8206919,4.99942611 35.053793,4.96775333 35.2868941,4.87151682 L35.6268332,5.91428211 C35.3828055,6.01051862 35.0647196,6.05315505 34.8413311,6.05315505 Z M25.4335161,5.92524576 L23.6306247,5.92524576 L23.6306247,7.46868457 L22.51611,7.46868457 L22.51611,5.92524576 L21.4877942,5.92524576 L21.4877942,4.91415325 L22.51611,4.91415325 L22.51611,2.5935132 C22.51611,1.41309315 22.9725997,0.710201126 24.276509,0.710201126 C24.7548519,0.710201126 25.3060389,0.858819544 25.6556906,1.10367448 L25.3376047,2.05142144 C25.0085922,1.86016659 24.6480139,1.76393007 24.3614938,1.76393007 C23.8103068,1.76393007 23.6306247,2.10502152 23.6306247,2.61544051 L23.6306247,4.91415325 L25.4335161,4.91415325 L25.4335161,5.92524576 Z M8.95011124,0.83811042 L8.95011124,4.03097003 C8.95011124,5.23331739 8.18646231,6.0421914 6.95539709,6.05315505 C6.3082987,6.06411871 5.64056116,5.8619002 5.17314487,5.14804453 C4.82349321,5.7120636 4.27230622,6.05315505 3.49773067,6.05315505 C2.95625622,6.05315505 2.42692246,5.89357298 2.01292518,5.29788113 L2.01292518,5.92524576 L0.90933713,5.92524576 L0.90933713,0.83811042 L2.02263773,0.83811042 L2.02263773,3.6582058 C2.02263773,4.54138902 2.51069317,5.01038976 3.26462956,5.01038976 C3.99671273,5.01038976 4.36700355,4.53164355 4.36700355,3.66916945 L4.36700355,0.83811042 L5.48151821,0.83811042 L5.48151821,3.6582058 C5.48151821,4.54138902 5.99021282,5.01038976 6.72229598,5.01038976 C7.4750183,5.01038976 7.83559658,4.53164355 7.83559658,3.66916945 L7.83559658,0.83811042 L8.95011124,0.83811042 Z" id="Shape"></path>
                </g>
                <g id="Group" transform="translate(60.500000, 29.500000) scale(-1, 1) rotate(-180.000000) translate(-60.500000, -29.500000) translate(59.000000, 29.000000)" fill="#F79410">
                    <path d="M2.28409453,0 L2.28409453,0.928865109 L2.10250902,0.928865109 L1.89237232,0.29084137 L1.68337767,0.928865109 L1.50065011,0.928865109 L1.50065011,0 L1.62970145,0 L1.62970145,0.700455656 L1.82613358,0.0959319703 L1.95975311,0.0959319703 L2.15618524,0.701978386 L2.15618524,0 L2.28409453,0 Z M1.13176884,0 L1.13176884,0.770501222 L1.36474648,0.770501222 L1.36474648,0.92734238 L0.770881904,0.92734238 L0.770881904,0.770501222 L1.00385955,0.770501222 L1.00385955,0 L1.13176884,0 Z" id="Shape"></path>
                </g>
                <polygon id="Shape" fill="#FF5F00" points="39 33 23 33 23 4 39 4"></polygon>
                <g id="Group" transform="translate(16.000000, 18.500000) scale(-1, 1) rotate(-180.000000) translate(-16.000000, -18.500000) " fill="#EB001B">
                    <path d="M24.363675,18.516393 C24.363675,24.3224395 27.2251886,29.4942995 31.6813048,32.8272502 C28.4226633,35.2644705 24.3100749,36.7191646 19.8405587,36.7191646 C9.25941468,36.7191646 0.6821829,28.5696371 0.6821829,18.516393 C0.6821829,8.46314888 9.25941468,0.313621406 19.8405587,0.313621406 C24.3100749,0.313621406 28.4226633,1.76831553 31.6813048,4.20553576 C27.2251886,7.5384865 24.363675,12.7103465 24.363675,18.516393" id="Shape"></path>
                </g>
                <g id="Group" transform="translate(46.000000, 18.500000) scale(-1, 1) rotate(-180.000000) translate(-46.000000, -18.500000) translate(30.000000, 0.000000)" fill="#F79E1B">
                    <path d="M31.6727775,18.516393 C31.6727775,8.46314888 23.0955457,0.313621406 12.5144017,0.313621406 C8.04488548,0.313621406 3.93229714,1.76831553 0.67243743,4.20553576 C5.12977177,7.5384865 7.9912854,12.7103465 7.9912854,18.516393 C7.9912854,24.3224395 5.12977177,29.4942995 0.67243743,32.8272502 C3.93229714,35.2644705 8.04488548,36.7191646 12.5144017,36.7191646 C23.0955457,36.7191646 31.6727775,28.5696371 31.6727775,18.516393" id="Shape"></path>
                </g>
            </g>
        </g>
    </g>
</svg>