<?xml version="1.0" encoding="UTF-8"?>
<svg width="132px" height="57px" viewBox="0 0 132 57" version="1.1" xmlns="http://www.w3.org/2000/svg" xmlns:xlink="http://www.w3.org/1999/xlink">
    <!-- Generator: Sketch 51.2 (57519) - http://www.bohemiancoding.com/sketch -->
    <title>paypal</title>
    <desc>Created with Sketch.</desc>
    <defs></defs>
    <g id="Desktop" stroke="none" stroke-width="1" fill="none" fill-rule="evenodd">
        <g id="paypal">
            <rect id="Rectangle" fill="#FFFFFF" x="0" y="0" width="132" height="57"></rect>
            <g id="text" transform="translate(39.000000, 19.000000)" fill-rule="nonzero">
                <path d="M11.211,0.749 L4.372,0.749 C3.904,0.749 3.506,1.089 3.433,1.551 L0.667,19.088 C0.612,19.434 0.88,19.746 1.231,19.746 L4.496,19.746 C4.964,19.746 5.362,19.406 5.435,18.943 L6.181,14.213 C6.253,13.75 6.652,13.41 7.119,13.41 L9.284,13.41 C13.789,13.41 16.389,11.23 17.068,6.91 C17.374,5.02 17.081,3.535 16.196,2.495 C15.224,1.353 13.5,0.749 11.211,0.749 Z M12,7.154 C11.626,9.608 9.751,9.608 7.938,9.608 L6.906,9.608 L7.63,5.025 C7.673,4.748 7.913,4.544 8.193,4.544 L8.666,4.544 C9.901,4.544 11.066,4.544 11.668,5.248 C12.027,5.668 12.137,6.292 12,7.154 Z" id="Shape" fill="#253B80"></path>
                <path d="M31.654,7.075 L28.379,7.075 C28.1,7.075 27.859,7.279 27.816,7.556 L27.671,8.472 L27.442,8.14 C26.733,7.111 25.152,6.767 23.574,6.767 C19.955,6.767 16.864,9.508 16.262,13.353 C15.949,15.271 16.394,17.105 17.482,18.384 C18.48,19.56 19.908,20.05 21.607,20.05 C24.523,20.05 26.14,18.175 26.14,18.175 L25.994,19.085 C25.939,19.433 26.207,19.745 26.556,19.745 L29.506,19.745 C29.975,19.745 30.371,19.405 30.445,18.942 L32.215,7.733 C32.271,7.388 32.004,7.075 31.654,7.075 Z M27.089,13.449 C26.773,15.32 25.288,16.576 23.394,16.576 C22.443,16.576 21.683,16.271 21.195,15.693 C20.711,15.119 20.527,14.302 20.681,13.392 C20.976,11.537 22.486,10.24 24.351,10.24 C25.281,10.24 26.037,10.549 26.535,11.132 C27.034,11.721 27.232,12.543 27.089,13.449 Z" id="Shape" fill="#253B80"></path>
                <path d="M49.096,7.075 L45.805,7.075 C45.491,7.075 45.196,7.231 45.018,7.492 L40.479,14.178 L38.555,7.753 C38.434,7.351 38.063,7.075 37.643,7.075 L34.409,7.075 C34.016,7.075 33.743,7.459 33.868,7.829 L37.493,18.467 L34.085,23.278 C33.817,23.657 34.087,24.178 34.55,24.178 L37.837,24.178 C38.149,24.178 38.441,24.026 38.618,23.77 L49.564,7.97 C49.826,7.592 49.557,7.075 49.096,7.075 Z" id="Shape" fill="#253B80"></path>
                <path d="M59.992,0.749 L53.152,0.749 C52.685,0.749 52.287,1.089 52.214,1.551 L49.448,19.088 C49.393,19.434 49.661,19.746 50.01,19.746 L53.52,19.746 C53.846,19.746 54.125,19.508 54.176,19.184 L54.961,14.213 C55.033,13.75 55.432,13.41 55.899,13.41 L58.063,13.41 C62.569,13.41 65.168,11.23 65.848,6.91 C66.155,5.02 65.86,3.535 64.975,2.495 C64.004,1.353 62.281,0.749 59.992,0.749 Z M60.781,7.154 C60.408,9.608 58.533,9.608 56.719,9.608 L55.688,9.608 L56.413,5.025 C56.456,4.748 56.694,4.544 56.975,4.544 L57.448,4.544 C58.682,4.544 59.848,4.544 60.45,5.248 C60.809,5.668 60.918,6.292 60.781,7.154 Z" id="Shape" fill="#179BD7"></path>
                <path d="M80.434,7.075 L77.161,7.075 C76.88,7.075 76.641,7.279 76.599,7.556 L76.454,8.472 L76.224,8.14 C75.515,7.111 73.935,6.767 72.357,6.767 C68.738,6.767 65.648,9.508 65.046,13.353 C64.734,15.271 65.177,17.105 66.265,18.384 C67.265,19.56 68.691,20.05 70.39,20.05 C73.306,20.05 74.923,18.175 74.923,18.175 L74.777,19.085 C74.722,19.433 74.99,19.745 75.341,19.745 L78.29,19.745 C78.757,19.745 79.155,19.405 79.228,18.942 L80.999,7.733 C81.053,7.388 80.785,7.075 80.434,7.075 Z M75.869,13.449 C75.555,15.32 74.068,16.576 72.174,16.576 C71.225,16.576 70.463,16.271 69.975,15.693 C69.491,15.119 69.309,14.302 69.461,13.392 C69.758,11.537 71.266,10.24 73.131,10.24 C74.061,10.24 74.817,10.549 75.315,11.132 C75.816,11.721 76.014,12.543 75.869,13.449 Z" id="Shape" fill="#179BD7"></path>
                <path d="M84.295,1.23 L81.488,19.088 C81.433,19.434 81.701,19.746 82.05,19.746 L84.872,19.746 C85.341,19.746 85.739,19.406 85.811,18.943 L88.579,1.407 C88.634,1.061 88.366,0.748 88.017,0.748 L84.857,0.748 C84.578,0.749 84.338,0.953 84.295,1.23 Z" id="Shape" fill="#179BD7"></path>
            </g>
            <g id="icon" transform="translate(4.000000, 13.000000)" fill-rule="nonzero">
                <path d="M7.266,29.154 L7.789,25.832 L6.624,25.805 L1.061,25.805 L4.927,1.292 C4.939,1.218 4.978,1.149 5.035,1.1 C5.092,1.051 5.165,1.024 5.241,1.024 L14.621,1.024 C17.735,1.024 19.884,1.672 21.006,2.951 C21.532,3.551 21.867,4.178 22.029,4.868 C22.199,5.592 22.202,6.457 22.036,7.512 L22.024,7.589 L22.024,8.265 L22.55,8.563 C22.993,8.798 23.345,9.067 23.615,9.375 C24.065,9.888 24.356,10.54 24.479,11.313 C24.606,12.108 24.564,13.054 24.356,14.125 C24.116,15.357 23.728,16.43 23.204,17.308 C22.722,18.117 22.108,18.788 21.379,19.308 C20.683,19.802 19.856,20.177 18.921,20.417 C18.015,20.653 16.982,20.772 15.849,20.772 L15.119,20.772 C14.597,20.772 14.09,20.96 13.692,21.297 C13.293,21.641 13.029,22.111 12.948,22.625 L12.893,22.924 L11.969,28.779 L11.927,28.994 C11.916,29.062 11.897,29.096 11.869,29.119 C11.844,29.14 11.808,29.154 11.773,29.154 L7.266,29.154 Z" id="Shape" fill="#253B80"></path>
                <path d="M23.048,7.667 C23.02,7.846 22.988,8.029 22.952,8.217 C21.715,14.568 17.483,16.762 12.078,16.762 L9.326,16.762 C8.665,16.762 8.108,17.242 8.005,17.894 L6.596,26.83 L6.197,29.363 C6.13,29.791 6.46,30.177 6.892,30.177 L11.773,30.177 C12.351,30.177 12.842,29.757 12.933,29.187 L12.981,28.939 L13.9,23.107 L13.959,22.787 C14.049,22.215 14.541,21.795 15.119,21.795 L15.849,21.795 C20.578,21.795 24.28,19.875 25.362,14.319 C25.814,11.998 25.58,10.06 24.384,8.697 C24.022,8.286 23.573,7.945 23.048,7.667 Z" id="Shape" fill="#179BD7"></path>
                <path d="M21.7462463,7.13874817 C21.5572463,7.08374817 21.37,7.046 21.17,7.001 C20.969,6.957 20.763,6.918 20.551,6.884 C19.809,6.764 18.996,6.707 18.125,6.707 L10.773,6.707 C10.592,6.707 10.42,6.748 10.266,6.822 C9.927,6.985 9.675,7.306 9.614,7.699 L8.05,17.605 L8.005,17.894 C8.108,17.242 8.665,16.762 9.326,16.762 L12.078,16.762 C17.483,16.762 21.715,14.567 22.952,8.217 C22.989,8.029 23.02,7.846 23.048,7.667 C22.7489014,7.48632812 22.4197028,7.3594491 22.0547028,7.2384491 C21.9647028,7.2084491 21.8402463,7.16674817 21.7462463,7.13874817 Z" id="Shape" fill="#222D65"></path>
                <path d="M9.614,7.699 C9.675,7.306 9.927,6.985 10.266,6.823 C10.421,6.749 10.592,6.708 10.773,6.708 L18.125,6.708 C18.996,6.708 19.809,6.765 20.551,6.885 C20.763,6.919 20.969,6.958 21.17,7.002 C21.37,7.047 21.565,7.097 21.754,7.152 C21.848,7.18 21.941,7.209 22.032,7.238 C22.397,7.359 22.736,7.502 23.049,7.667 C23.417,5.32 23.046,3.722 21.777,2.275 C20.378,0.682 17.853,0 14.622,0 L5.242,0 C4.582,0 4.019,0.48 3.917,1.133 L0.01,25.898 C-0.067,26.388 0.311,26.83 0.805,26.83 L6.596,26.83 L8.05,17.605 L9.614,7.699 Z" id="Shape" fill="#253B80"></path>
            </g>
        </g>
    </g>
</svg>