<?xml version="1.0" encoding="utf-8"?>
<!-- Generator: Adobe Illustrator 22.1.0, SVG Export Plug-In . SVG Version: 6.00 Build 0)  -->
<svg version="1.1" id="bd237461-e6b7-4bef-9592-a4fcdaf423c6"
	 xmlns="http://www.w3.org/2000/svg" xmlns:xlink="http://www.w3.org/1999/xlink" x="0px" y="0px" viewBox="0 0 132 57"
	 style="enable-background:new 0 0 132 57;" xml:space="preserve">
<style type="text/css">
	.visa-st0{fill:#FFFFFF;}
	.visa-st1{fill:#F7B600;}
	.visa-st2{fill:#1A1F71;}
</style>
<title>visa</title>
<rect y="0" class="visa-st0" width="132" height="57"/>
<g>
	<rect x="28.8" y="45" class="visa-st1" width="74.5" height="6.7"/>
	<rect x="28.8" y="5.3" class="visa-st2" width="74.5" height="6.7"/>
	<path class="visa-st2" d="M58.5,19.4l-7.7,18.3h-5L42,23.1c-0.1-0.7-0.5-1.3-1.1-1.6c-1.5-0.7-3.1-1.2-4.7-1.6l0.1-0.5h8.1
		c1.1,0,2,0.8,2.2,1.9l2,10.6l4.9-12.5L58.5,19.4L58.5,19.4z M78.2,31.7c0-4.8-6.7-5.1-6.7-7.3c0-0.7,0.7-1.4,2-1.6
		c1.6-0.2,3.2,0.1,4.7,0.8l0.9-3.9c-1.4-0.5-2.9-0.8-4.4-0.8c-4.7,0-8,2.5-8,6.1c0,2.6,2.4,4.1,4.2,5s2.5,1.5,2.5,2.3
		c0,1.2-1.5,1.8-2.8,1.8c-1.7,0.1-3.4-0.3-4.9-1.1l-0.8,4c1.7,0.7,3.5,1,5.3,1C74.9,38,78.2,35.6,78.2,31.7 M90.6,37.8H95l-3.8-18.4
		h-4.1c-0.9,0-1.7,0.5-2,1.3l-7.2,17h5l1-2.7h6L90.6,37.8z M85.3,31.2l2.5-6.9l1.4,6.9H85.3z M65.3,19.4l-3.9,18.3h-4.7l3.9-18.3
		L65.3,19.4z"/>
</g>
</svg>
