<?xml version="1.0" encoding="UTF-8"?>
<svg width="120px" height="52px" viewBox="0 0 120 52" version="1.1" xmlns="http://www.w3.org/2000/svg" xmlns:xlink="http://www.w3.org/1999/xlink">
    <!-- Generator: Sketch 51.2 (57519) - http://www.bohemiancoding.com/sketch -->
    <title>dhl</title>
    <desc>Created with Sketch.</desc>
    <defs></defs>
    <g id="Desktop" stroke="none" stroke-width="1" fill="none" fill-rule="evenodd">
        <g id="dhl" fill-rule="nonzero">
            <polygon id="rectangle" fill="#FECC00" points="120 52 0 52 0 0 120 0"></polygon>
            <path d="M38.6906252,24.0002575 C38.166238,24.6530297 37.2888454,25.787849 36.7548991,26.4506639 C36.4838291,26.7877203 35.9942645,27.3996942 37.6172702,27.3996942 C39.3345017,27.3996942 46.1624599,27.3996942 46.1624599,27.3996942 C46.1624599,27.3996942 47.5396591,25.6773799 48.6942668,24.2368874 C50.2646972,22.2773155 48.8301432,18.2 43.2155131,18.2 C38.1901359,18.2 21.1038532,18.2 21.1038532,18.2 L17.2699547,22.9884606 C17.2699547,22.9884606 37.1454583,22.9884606 38.1655552,22.9884606 C39.2204748,22.9884606 39.2061361,23.357528 38.6906252,24.0002575 Z M32.4130004,28.5809608 C30.7899948,28.5809608 31.2795594,27.9677316 31.5506293,27.6306751 C32.0845756,26.9678603 32.976307,25.8449666 33.5006942,25.1921944 C34.0168878,24.5494649 34.0305437,24.1803975 32.9742586,24.1803975 C31.9548444,24.1803975 23.4178483,24.1803975 23.4178483,24.1803975 L15.7179598,33.8 C15.7179598,33.8 29.4701504,33.8 34.4955277,33.8 C40.6973621,33.8 44.1502606,29.9222821 45.2147393,28.5815885 C45.2147393,28.5809608 34.1295491,28.5809608 32.4130004,28.5809608 Z M44.6282177,33.8 L55.6437627,33.8 L59.8197419,28.5803331 L48.8055625,28.5815885 C48.8021485,28.5809608 44.6282177,33.8 44.6282177,33.8 Z M73.0495937,18.2 L68.8244532,23.4755291 L63.9083233,23.4755291 L68.1314154,18.2 L57.1192844,18.2 L49.7519175,27.3996942 L76.6950406,27.3996942 L84.0603592,18.2 L73.0495937,18.2 Z M60.5598926,33.8 L71.5713408,33.8 L75.7493684,28.5815885 L64.7379202,28.5815885 C64.7338234,28.5809608 60.5598926,33.8 60.5598926,33.8 Z M0,30.6397039 L0,31.7481613 L15.3410565,31.7481613 L16.2273255,30.6397039 L0,30.6397039 Z M17.8762774,28.5809608 L0,28.5809608 L0,29.6881629 L16.98796,29.6881629 L17.8762774,28.5809608 Z M0,33.8 L13.697567,33.8 L14.5797392,32.6978193 L0,32.6978193 L0,33.8 Z M103.834126,31.7475336 L120,31.7475336 L120,30.6390762 L104.721761,30.6390762 L103.834126,31.7475336 Z M102.192002,33.8 L120,33.8 L120,32.6978193 L103.073492,32.6978193 L102.192002,33.8 Z M106.367981,28.5809608 L105.482395,29.6894182 L120,29.6894182 L120,28.5809608 L106.367981,28.5809608 Z M91.9446025,27.3996942 L99.3112866,18.2 L87.6484512,18.2 C87.6443544,18.2 80.2763047,27.3996942 80.2763047,27.3996942 L91.9446025,27.3996942 Z M79.3319981,28.5809608 C79.3319981,28.5809608 78.5269818,29.59213 78.1357398,30.0791985 C76.7530783,31.7964915 77.9759656,33.8 82.489246,33.8 C87.7030749,33.8 100.174341,33.8 100.174341,33.8 L104.352368,28.5815885 L79.3319981,28.5815885 L79.3319981,28.5809608 Z" id="Shape" fill="#D50029"></path>
        </g>
    </g>
</svg>