<?xml version="1.0" encoding="UTF-8"?>
<svg width="132px" height="57px" viewBox="0 0 132 57" version="1.1" xmlns="http://www.w3.org/2000/svg" xmlns:xlink="http://www.w3.org/1999/xlink">
    <!-- Generator: Sketch 53.2 (72643) - https://sketchapp.com -->
    <title>Group 41</title>
    <desc>Created with Sketch.</desc>
    <g id="mobil" stroke="none" stroke-width="1" fill="none" fill-rule="evenodd">
        <g id="DE-AT-Zahlung-und-Versand" transform="translate(-50.000000, -36.000000)">
            <g id="Group-41" transform="translate(50.000000, 36.000000)">
                <polygon id="Fill-1" fill="#FFFFFF" points="0 57 132 57 132 0 0 0"></polygon>
                <g id="Group-40" transform="translate(15.000000, 9.000000)">
                    <path d="M53.1533,22.5361 C51.5383,22.5361 49.9233,22.1781 48.3983,21.3701 L48.8463,18.4101 C50.1033,19.1271 51.6283,19.4861 53.0633,19.4861 C54.7673,19.4861 55.4853,18.8581 55.4853,17.7811 C55.4853,15.3591 48.4883,16.4351 48.4883,11.3221 C48.4883,8.7211 50.1923,6.6571 54.0493,6.6571 C55.4853,6.6571 56.9213,6.9261 58.3563,7.4641 L57.9083,10.3351 C56.7413,9.9761 55.4853,9.7071 54.2293,9.7071 C52.3453,9.7071 51.8073,10.3351 51.8073,11.1421 C51.8073,13.5651 58.8043,12.3991 58.8043,17.6021 C58.8043,20.7421 56.7413,22.5361 53.1533,22.5361" id="Fill-2" fill="#005DA1"></path>
                    <polygon id="Fill-4" fill="#005DA1" points="72.082 19.3066 72.082 22.2666 61.676 22.2666 61.676 7.0156 72.082 7.0156 72.082 10.0666 65.175 10.0666 65.175 13.1166 70.736 13.1166 70.736 15.8076 65.085 15.8076 65.085 19.3066"></polygon>
                    <path d="M80.5156,9.8867 L78.4526,9.8867 L78.4526,14.5517 L80.5156,14.5517 C82.2196,14.5517 82.9376,14.1027 82.9376,12.2197 C82.9376,10.4257 82.3096,9.8867 80.5156,9.8867 M80.5156,17.3327 L78.4526,17.3327 L78.4526,22.2667 L75.0426,22.2667 L75.0426,7.0157 L80.5156,7.0157 C84.7316,7.0157 86.4366,8.7207 86.4366,12.2197 C86.5266,15.4487 84.8216,17.3327 80.5156,17.3327" id="Fill-6" fill="#005DA1"></path>
                    <path d="M93.793,11.2324 L92.268,16.4354 L96.125,16.4354 L94.689,11.2324 L94.241,9.6174 L94.151,9.6174 L93.793,11.2324 Z M97.022,19.3064 L91.46,19.3064 L90.564,22.2664 L86.975,22.2664 L92.268,7.0164 L96.395,7.0164 L101.688,22.2664 L97.83,22.2664 L97.022,19.3064 Z" id="Fill-8" fill="#005DA1"></path>
                    <polygon id="Fill-10" fill="#005DA1" points="53.0635 32.1357 53.0635 33.5707 48.5775 33.5707 48.5775 26.4837 50.1035 26.4837 50.1035 32.1357"></polygon>
                    <path d="M57.1006,31.1484 C56.8306,31.0584 56.5626,31.0584 56.2926,31.0584 C55.6646,31.0584 55.3066,31.3284 55.3066,31.7764 C55.3066,32.3144 55.6646,32.4944 56.1136,32.4944 C56.5626,32.4944 57.1006,32.2254 57.1006,31.8664 L57.1006,31.1484 Z M57.3696,33.0324 L57.3696,33.0324 C56.9206,33.4814 56.3826,33.7504 55.7546,33.6604 C54.6776,33.6604 53.9606,33.0324 53.9606,31.7764 C53.9606,30.7004 54.6776,29.9824 56.0236,29.9824 C56.3826,29.9824 56.7416,30.0724 57.1006,30.1624 L57.1006,29.8024 C57.1006,29.2644 56.8306,28.9954 56.0236,28.9954 C55.4856,28.9954 54.9476,29.0854 54.4096,29.2644 L54.3196,28.0984 C54.9476,27.8294 55.5756,27.7394 56.2926,27.7394 C57.9966,27.7394 58.5366,28.4574 58.5366,30.0724 L58.5366,33.5704 L57.3696,33.5704 L57.3696,33.0324 Z" id="Fill-12" fill="#005DA1"></path>
                    <path d="M61.7656,33.75 C61.1376,33.75 60.5096,33.66 59.9716,33.392 L60.1506,32.226 C60.6886,32.494 61.2276,32.584 61.7656,32.674 C62.3936,32.674 62.5736,32.404 62.5736,32.136 C62.5736,31.238 59.8816,31.776 59.8816,29.713 C59.8816,28.727 60.5996,27.919 62.0346,27.919 C62.5736,27.919 63.1116,28.009 63.6496,28.188 L63.5596,29.265 C63.1116,29.085 62.5736,28.995 62.0346,28.995 C61.5856,28.995 61.3166,29.175 61.3166,29.444 C61.3166,30.341 63.9186,29.803 63.9186,31.776 C63.9186,32.942 63.2906,33.75 61.7656,33.75" id="Fill-14" fill="#005DA1"></path>
                    <path d="M66.7891,28.9951 L66.7891,31.9561 C66.7891,32.4041 67.0591,32.5841 67.5071,32.5841 C67.6861,32.5841 67.7761,32.5841 67.9561,32.4941 L68.0451,33.5701 C67.6861,33.6601 67.4171,33.7501 67.0591,33.7501 C65.8931,33.7501 65.3531,33.1221 65.3531,32.0461 L65.3531,29.0851 L64.7261,29.0851 L64.7261,28.0091 L65.4431,28.0091 L65.7131,26.7531 L66.8791,26.6631 L66.8791,28.0991 L68.0451,28.0991 L68.0451,29.1751 L66.7891,29.1751 L66.7891,28.9951 Z" id="Fill-16" fill="#005DA1"></path>
                    <path d="M70.916,33.75 C70.288,33.75 69.66,33.66 69.122,33.392 L69.301,32.226 C69.84,32.494 70.378,32.584 70.916,32.674 C71.544,32.674 71.724,32.404 71.724,32.136 C71.724,31.238 69.032,31.776 69.032,29.713 C69.032,28.727 69.75,27.919 71.186,27.919 C71.724,27.919 72.262,28.009 72.8,28.188 L72.71,29.354 C72.262,29.175 71.724,29.085 71.186,29.085 C70.736,29.085 70.468,29.265 70.468,29.534 C70.468,30.431 73.069,29.893 73.069,31.866 C73.069,32.942 72.441,33.75 70.916,33.75" id="Fill-18" fill="#005DA1"></path>
                    <path d="M78.0928,29.2646 C77.8238,29.1746 77.4648,29.0846 77.1068,29.0846 C76.0298,29.0846 75.6708,29.5346 75.6708,30.7006 C75.6708,31.8666 76.2088,32.4046 77.0168,32.4046 C77.3748,32.4046 77.7348,32.3146 78.0928,32.2256 L78.1828,33.3916 C77.7348,33.6606 77.1968,33.7496 76.7468,33.7496 C75.0428,33.7496 74.1458,32.7636 74.1458,30.7896 C74.1458,28.9056 74.9528,27.8286 76.7468,27.8286 C77.1968,27.8286 77.6448,27.9186 78.0928,28.0986 L78.0928,29.2646 Z" id="Fill-20" fill="#005DA1"></path>
                    <path d="M82.8477,33.5703 L82.8477,29.8923 C82.8477,29.2643 82.5787,28.9953 81.9507,28.9953 C81.5917,28.9953 81.2337,29.1743 80.9637,29.4443 L80.9637,33.5703 L79.5287,33.5703 L79.5287,26.2153 L80.9637,26.1253 L80.9637,27.4703 L80.9637,28.1883 C81.3227,27.8293 81.8617,27.6493 82.3997,27.7393 C83.5657,27.7393 84.2837,28.5473 84.2837,29.8923 L84.2837,33.5703 L82.8477,33.5703 Z" id="Fill-22" fill="#005DA1"></path>
                    <path d="M85.8984,33.5703 L85.8984,27.9193 L87.0644,27.8293 L87.1544,28.8163 C87.5124,28.0983 88.0504,27.8293 88.6784,27.8293 C88.8584,27.8293 89.1274,27.8293 89.3064,27.9193 L89.2174,29.3543 C89.0384,29.2643 88.7684,29.2643 88.5894,29.2643 C87.8724,29.2643 87.2444,29.8023 87.2444,30.7903 L87.2444,33.6603 L85.8984,33.5703 Z" id="Fill-24" fill="#005DA1"></path>
                    <path d="M90.832,33.5703 L90.832,27.9193 L92.357,27.8293 L92.357,33.5703 L90.832,33.5703 Z M91.55,27.2913 C91.012,27.2913 90.742,27.1113 90.742,26.6633 C90.742,26.2153 91.012,26.0353 91.55,26.0353 C92.088,26.0353 92.357,26.2153 92.357,26.6633 C92.357,27.0213 92.178,27.2913 91.55,27.2913 L91.55,27.2913 Z" id="Fill-26" fill="#005DA1"></path>
                    <path d="M94.4209,33.5703 L94.4209,28.9053 L93.7029,28.9053 L93.7029,27.8293 L94.4209,27.8293 L94.4209,27.5603 C94.4209,26.6633 95.0489,26.0353 96.3949,26.0353 C96.6629,26.0353 97.0229,26.0353 97.2909,26.1253 L97.2019,27.1113 C97.0229,27.1113 96.8429,27.0213 96.6629,27.0213 C96.1249,27.0213 95.8569,27.2913 95.8569,27.6493 L95.8569,27.8293 L97.1119,27.8293 L97.1119,28.9053 L95.8569,28.9053 L95.8569,33.5703 L94.4209,33.5703 Z" id="Fill-28" fill="#005DA1"></path>
                    <path d="M100.0723,28.9951 L100.0723,31.9561 C100.0723,32.4041 100.3423,32.5841 100.7903,32.5841 C100.9693,32.5841 101.0593,32.5841 101.2393,32.4941 L101.3283,33.5701 C100.9693,33.6601 100.7003,33.7501 100.3423,33.7501 C99.1763,33.7501 98.6363,33.1221 98.6363,32.0461 L98.6363,29.0851 L98.0093,29.0851 L98.0093,28.0091 L98.7263,28.0091 L98.9963,26.7531 L100.1623,26.6631 L100.1623,28.0991 L101.4183,28.0991 L101.4183,29.1751 L100.0723,29.1751 L100.0723,28.9951 Z" id="Fill-30" fill="#005DA1"></path>
                    <path d="M16.2813,19.0376 C16.1923,19.1266 16.1923,19.1266 16.1023,19.1266 C16.0123,19.1266 15.9223,19.1266 15.8333,19.0376 L11.8853,16.0776 L6.5923,12.1296 L2.6453,9.1686 C2.5553,9.0796 2.5553,9.0796 2.5553,8.9896 C2.5553,8.8996 2.5553,8.8096 2.6453,8.8096 L3.7213,7.3746 C3.7213,7.3746 4.8883,5.8496 5.9643,4.5036 L10.3603,7.8236 L15.1153,11.4126 L19.5113,14.7316 C18.4343,16.0776 17.2683,17.6016 17.2683,17.6016 L16.2813,19.0376 Z M8.9253,1.0956 L12.7823,4.0556 L15.3843,6.0296 L17.9863,8.0026 L21.8433,10.9636 C22.0233,11.0536 22.0233,11.3226 21.9333,11.4126 L21.0363,12.6676 L16.6403,9.3486 L11.8853,5.7606 L7.4893,2.4406 L8.3863,1.1846 C8.5663,1.0056 8.8353,1.0056 8.9253,1.0956 L8.9253,1.0956 Z M22.4713,10.3356 L15.9223,5.4016 L9.3733,0.4666 C8.9253,0.1976 8.2973,0.2876 7.9383,0.7366 L2.1973,8.4516 C2.1073,8.5406 2.0173,8.7206 2.0173,8.8096 C1.9273,9.2586 2.1073,9.6176 2.3763,9.8866 L6.2343,12.8476 L11.5273,16.7946 L15.3843,19.7546 C15.7433,20.0246 16.1923,20.0246 16.5513,19.8446 C16.6403,19.7546 16.8203,19.6656 16.9093,19.5756 L22.6513,11.8606 C23.0103,11.3226 22.9203,10.6946 22.4713,10.3356 L22.4713,10.3356 Z" id="Fill-32" fill="#AEB2BD"></path>
                    <path d="M1.2993,38.0566 L5.8753,22.8056 L18.3443,22.8056 L17.2683,24.2416 L15.7433,26.3936 L15.5633,26.7526 L15.3843,27.1116 L15.2053,27.5606 L15.0253,28.0086 L14.8463,28.4566 L14.6663,28.9056 L14.4873,29.3546 L14.3073,29.8026 L14.2183,30.1616 L14.1283,30.6106 L14.0383,30.9686 L13.9483,31.2386 L13.8593,31.5076 L13.7693,31.5966 L13.7693,31.6866 C13.7693,31.6866 13.5903,31.8666 13.4103,31.7766 C13.2313,31.6866 13.3203,31.2386 13.3203,31.0586 L13.5003,29.3546 C13.5003,29.1746 13.4103,29.0846 13.2313,29.0846 L13.1413,29.0846 C12.5133,29.4446 12.0653,29.8926 11.7063,30.5206 C11.7063,30.4306 11.7963,30.2506 11.7963,30.1616 C11.9753,29.5346 12.1543,28.9946 12.2443,28.3676 C12.3343,28.0086 12.2443,27.6496 11.7963,27.5606 C11.3473,27.4706 11.0783,27.9186 10.8093,28.2776 C10.1813,29.2646 9.7323,30.4306 8.9243,31.2386 C8.6553,31.5076 8.2973,31.7766 7.8483,31.6866 C7.3103,31.5076 7.1313,32.1356 8.0283,32.2246 C8.9243,32.3146 9.5533,31.3276 10.0013,30.7006 C10.2703,30.2506 10.5403,29.7126 10.8093,29.2646 C10.9883,28.9946 11.0783,28.8166 11.2573,28.5466 C11.3473,28.4566 11.4373,28.1886 11.6163,28.1886 C11.7963,28.1886 11.7063,28.2776 11.7063,28.3676 C11.6163,28.6366 11.6163,28.9056 11.5273,29.1746 C11.4373,29.4446 11.3473,29.8026 11.2573,30.0726 L10.6293,31.9556 C10.6293,32.1356 10.7193,32.2256 10.8093,32.2256 C10.8993,32.2256 10.9883,32.2256 11.0783,32.1356 C11.7063,31.2386 12.0653,30.4306 12.8723,29.8026 C12.8723,29.9826 12.8723,30.1616 12.7823,30.4306 C12.6933,30.7896 12.6933,31.1486 12.6933,31.4176 C12.6933,31.9556 13.1413,32.3146 13.6793,32.1356 C13.8593,32.0456 14.0383,31.9556 14.1283,31.8666 L14.2183,31.7766 L14.3973,31.6866 L14.6663,31.5076 L14.9353,31.3276 L15.2943,31.0586 L15.6533,30.7896 L16.0123,30.5206 L16.3713,30.2506 L16.7303,29.9826 L17.0893,29.7126 L17.4473,29.4446 L17.8063,29.1746 L18.0753,28.9066 L18.3443,28.7266 L18.5243,28.5466 L19.7803,27.1116 L22.9203,22.8956 L28.4823,22.8956 L32.7883,38.1466 L1.2993,38.0566 Z M23.6373,22.0876 L33.5063,8.8996 L34.4933,7.5546 C34.5823,7.4646 34.5823,7.3746 34.4933,7.2856 L31.7123,5.2216 C31.6223,5.1316 31.4433,5.2216 31.4433,5.3116 L31.0843,5.7606 L18.7933,22.0876 L5.3363,22.0876 L0.3123,38.6846 L33.9543,38.6846 L29.2003,22.0876 L23.6373,22.0876 Z" id="Fill-34" fill="#005DA1"></path>
                    <path d="M30.4561,14.1929 L35.1211,7.9129 C35.2101,7.8229 35.3001,7.8229 35.3901,7.9129 L35.7491,8.1819 C35.8391,8.2719 35.8391,8.3619 35.7491,8.4509 L31.0841,14.7319 C30.9941,14.8209 30.9041,14.8209 30.8151,14.7319 L30.4561,14.4619 L30.4561,14.1929 Z" id="Fill-36" fill="#005DA1"></path>
                    <polygon id="Fill-38" fill="#005DA1" points="16.9092 34.7373 26.2392 34.7373 26.0602 34.0193 16.9092 34.0193 7.7592 34.0193 7.5792 34.7373"></polygon>
                </g>
            </g>
        </g>
    </g>
</svg>
