<?xml version="1.0" encoding="utf-8"?>
<!-- Generator: Adobe Illustrator 22.1.0, SVG Export Plug-In . SVG Version: 6.00 Build 0)  -->
<svg version="1.1" id="product-philosophy-svg" xmlns="http://www.w3.org/2000/svg" xmlns:xlink="http://www.w3.org/1999/xlink" x="0px" y="0px"
	 viewBox="0 0 45 48.1" style="enable-background:new 0 0 45 48.1;" xml:space="preserve">
<style type="text/css">
	.product-philosophy-svg-path{fill:#1D1D1B;}
</style>
<title>Element 1</title>
<path class="product-philosophy-svg-path" d="M44.8,40.3c-0.2-0.3-4.6-6.7-10.7-7c-2.4,0-4.7,0.6-6.7,1.9c1.1-1.4,2.1-3,3-4.6
	c0.1,0,0.2,0,0.2,0c0.4-0.2,10.5-4.7,12.4-13s-5-17-5.3-17.3C37.4,0,36.9-0.2,36.5,0S26,4.7,24.1,13.1C22.5,20,27,27,28.8,29.4
	c-2.9,5.4-7.3,9.8-12.6,12.7c2-2.6,4.9-7.3,4.1-12.3l0,0c-1-7.2-9.3-11.8-9.6-12c-0.4-0.2-0.9-0.2-1.2,0.2c-0.3,0.3-6.9,7-5.8,14.3
	c0.9,6.1,6.8,10.3,8.9,11.6C8.9,45.3,5,46.1,1,46.1c-0.6,0-1,0.4-1,1s0.4,1,1,1c7.9,0,15.5-2.8,21.6-7.8c0,0.1,0,0.1,0.1,0.2
	c0.2,0.3,4.6,6.7,10.7,7h0.5c5.9,0,10.7-5.7,10.9-5.9C45,41.1,45.1,40.7,44.8,40.3z M5.6,32c-0.8-5.2,3.3-10.3,4.7-12
	c1.9,1.2,7.2,5,8,10.2l0,0c0.6,4.2-1.9,8.3-3.6,10.7c0-3-0.4-6-1.4-8.9c-0.2-0.5-0.7-0.8-1.2-0.7c-0.5,0.2-0.8,0.7-0.7,1.2
	c1.6,5.3,1.4,8.2,1.2,9C10.3,39.9,6.3,36.4,5.6,32z M26.1,13.6c1.4-6.2,8.3-10.2,10.6-11.3c1.5,2,5.9,8.7,4.5,14.8
	C40,22.3,34.9,26,32,27.7c1.8-4.2,2.7-8.7,2.7-13.2c0-0.6-0.4-1-1-1s-1,0.4-1,1c0,4.5-0.9,8.9-2.8,13C28,24.7,24.8,18.9,26.1,13.6z
	 M33.5,45.4c-4.1-0.2-7.5-4-8.7-5.5c1.4-1.4,5.1-4.8,9.2-4.6s7.5,4,8.7,5.5C41.3,42.2,37.6,45.7,33.5,45.4z"/>
</svg>
