<svg id="58c8fe75-b8d5-49b8-9ea0-056ca4a42480" data-name="Ebene 1" xmlns="http://www.w3.org/2000/svg" viewBox="0 0 132 57">
  <defs>
    <style>
      .eb3f7e49-7f41-4db3-ac15-8fdc1e09aafb {
        fill: #fff;
      }
    </style>
  </defs>
  <title>rechnung-de</title>
  <g>
    <rect id="e49ad8e3-153b-450b-98d1-04aecdb41d67" data-name="Rectangle" class="eb3f7e49-7f41-4db3-ac15-8fdc1e09aafb" width="132" height="57"/>
    <g>
      <path d="M23.68,34.77l-3.9-5.26H17.1v5.26H15.62V22.23H20a4.57,4.57,0,0,1,2.12.47A3.34,3.34,0,0,1,23.54,24a3.76,3.76,0,0,1-.2,4.06,3.64,3.64,0,0,1-1.94,1.29l4,5.43ZM17.1,28.18H20a2.58,2.58,0,0,0,1.87-.63,2.43,2.43,0,0,0,0-3.34A2.55,2.55,0,0,0,20,23.56H17.1Z" transform="translate(0 0)"/>
      <path d="M35.48,22.23v1.33H28.92V27.4h5v1.33h-5v4.71H35.7v1.33H27.44V22.23Z" transform="translate(0 0)"/>
      <path d="M46.65,22.75a5.79,5.79,0,0,1,2.16,2l-1.1.87A5.13,5.13,0,0,0,46,24a4.62,4.62,0,0,0-2.32-.58,5,5,0,0,0-2.55.66,4.79,4.79,0,0,0-1.79,1.84,5.49,5.49,0,0,0,0,5.22A4.79,4.79,0,0,0,41.08,33a5,5,0,0,0,2.55.66A4.62,4.62,0,0,0,46,33a5.13,5.13,0,0,0,1.76-1.62l1.1.87a5.61,5.61,0,0,1-2.15,2,6.73,6.73,0,0,1-6.34-.13A6.28,6.28,0,0,1,38,31.79a6.66,6.66,0,0,1,0-6.58,6.28,6.28,0,0,1,2.36-2.33A6.54,6.54,0,0,1,43.61,22,6.44,6.44,0,0,1,46.65,22.75Z" transform="translate(0 0)"/>
      <path d="M61.49,22.23V34.77H60v-6H53v6H51.49V22.23H53V27.4h7V22.23Z" transform="translate(0 0)"/>
      <path d="M73.46,22.23h1.48V35h-.53l-8-9.61v9.4H65V22h.53l8,9.63Z" transform="translate(0 0)"/>
      <path d="M88.18,29.79a5.79,5.79,0,0,1-.63,2.8,4.34,4.34,0,0,1-1.77,1.78,5.74,5.74,0,0,1-5.15,0,4.34,4.34,0,0,1-1.77-1.78,5.79,5.79,0,0,1-.63-2.8V22.23h1.48v7.66a3.66,3.66,0,0,0,1,2.77,3.82,3.82,0,0,0,5,0,3.69,3.69,0,0,0,1-2.77V22.23h1.48Z" transform="translate(0 0)"/>
      <path d="M100,22.23h1.48V35H101l-8-9.61v9.4H91.49V22H92l8,9.63Z" transform="translate(0 0)"/>
      <path d="M113.56,22.7a6,6,0,0,1,2.19,1.89l-1.12.87a5.14,5.14,0,0,0-1.73-1.53,4.69,4.69,0,0,0-2.26-.54,5,5,0,0,0-2.56.66,4.63,4.63,0,0,0-1.78,1.84,5.26,5.26,0,0,0-.64,2.59,5.42,5.42,0,0,0,.65,2.63,4.83,4.83,0,0,0,1.8,1.87,5.2,5.2,0,0,0,2.61.67,4.87,4.87,0,0,0,2.45-.61,4.75,4.75,0,0,0,1.73-1.63V29.72h-4.28V28.39h5.76v3.34A6.27,6.27,0,0,1,114,34.1a6.7,6.7,0,0,1-3.37.88,6.55,6.55,0,0,1-3.3-.86A6.33,6.33,0,0,1,105,31.79a6.66,6.66,0,0,1,0-6.58,6.33,6.33,0,0,1,2.35-2.33,6.55,6.55,0,0,1,3.3-.86A6.34,6.34,0,0,1,113.56,22.7Z" transform="translate(0 0)"/>
    </g>
  </g>
</svg>
