<?xml version="1.0" encoding="UTF-8"?>
<svg width="88px" height="60px" viewBox="0 0 88 60" version="1.1" xmlns="http://www.w3.org/2000/svg" xmlns:xlink="http://www.w3.org/1999/xlink">
    <!-- Generator: Sketch 53.2 (72643) - https://sketchapp.com -->
    <title>reddot-logo</title>
    <desc>Created with Sketch.</desc>
    <defs>
        <polygon id="path-1" points="0 0 87.7264226 0 87.7264226 59.0559383 0 59.0559383"></polygon>
        <path d="M8.46374557,5.14827054 C8.45116112,5.40601489 8.36635282,5.61702244 8.22409376,5.77912768 C8.08329376,5.93936829 7.88546853,6.05100735 7.64563433,6.11091713 C7.40744163,6.17034573 7.12675355,6.1778645 6.81870795,6.13160887 C6.51163505,6.08457126 6.17659675,5.98357881 5.82745406,5.82496227 C5.47861541,5.66634573 5.14807587,5.46478182 4.8476296,5.23639083 C4.54773046,5.00775929 4.27792459,4.75115779 4.05091803,4.48258635 C3.8236683,4.21359388 3.63933946,3.93160892 3.51185345,3.65275179 C3.38290838,3.37196984 3.3111709,3.09467662 3.30995501,2.8350676 C3.30879992,2.57425557 3.37907833,2.35572927 3.50729387,2.18538341 C3.63648212,2.01383454 3.82458022,1.89052627 4.05851734,1.81930823 C4.29360956,1.74833078 4.57405447,1.73004507 4.88659883,1.76998492 C5.20054147,1.80944356 5.54609727,1.90815033 5.90800676,2.06839093 C6.27131453,2.22935333 6.61687028,2.43795483 6.92935391,2.67645106 C7.2416551,2.91422549 7.52143127,3.18279691 7.75366614,3.46357886 C7.98523226,3.7431578 8.16925713,4.03572922 8.29206195,4.32282696 C8.41456283,4.60902244 8.47657319,4.88980439 8.46374557,5.14827054 Z M10.8677413,7.25750359 C10.9073794,6.72252614 10.741836,6.20559383 10.3866139,5.49720289 C10.0916391,4.90977433 9.60005501,4.44974425 9.11017319,3.85293223 C8.61761635,3.25377435 8.02985542,2.70628565 7.3613594,2.19645107 C6.69286339,1.68727815 6.09847583,1.19879696 5.32377188,0.858105244 C4.55247242,0.518556379 3.85260647,0.141894733 3.1924393,0.0639398481 C2.5369533,-0.013172932 1.95375194,0.0333834578 1.47067907,0.191939845 C0.992652133,0.349834578 0.613659396,0.617263141 0.360511217,0.983338322 C0.11040276,1.34490222 -0.0168400687,1.80403003 0.00383005172,2.34869167 C0.0244393776,2.88793978 0.188098095,3.461233 0.46428738,4.03687208 C0.738531241,4.60902244 1.12567044,5.18466153 1.59658441,5.7332931 C2.06537059,6.28006002 2.61987696,6.80240585 3.23329318,7.26929305 C3.84664861,7.73636071 4.52110248,8.14989451 5.23282334,8.47933814 C5.94715841,8.81016519 6.63395355,9.02634564 7.26566889,9.13323284 C7.90206542,9.24180429 8.48508443,9.23939829 8.98402464,9.13202986 C9.48843636,9.02327797 9.93728195,8.85010502 10.242227,8.53052612 C10.5506982,8.20745842 10.8285289,7.78688702 10.8677413,7.25750359 Z" id="path-3"></path>
        <radialGradient cx="64.4171071%" cy="100.00043%" fx="64.4171071%" fy="100.00043%" r="113.2737%" gradientTransform="translate(0.644171,1.000004),scale(0.865730,1.000000),translate(-0.644171,-1.000004)" id="radialGradient-5">
            <stop stop-color="#FFFFFF" offset="0%"></stop>
            <stop stop-color="#ED1C24" offset="100%"></stop>
        </radialGradient>
        <radialGradient cx="64.4171071%" cy="100.00043%" fx="64.4171071%" fy="100.00043%" r="116.060244%" gradientTransform="translate(0.644171,1.000004),scale(0.844944,1.000000),translate(-0.644171,-1.000004)" id="radialGradient-6">
            <stop stop-color="#FFFFFF" offset="0%"></stop>
            <stop stop-color="#ED1C24" offset="100%"></stop>
        </radialGradient>
        <path d="M6.83962126,9.70700729 C4.8417082,8.47602988 3.65408212,7.82845092 2.18954938,6.05383444 C1.6022687,5.34231564 1.25507147,4.93371415 0.846848754,4.10905253 C0.643090002,3.69804502 0.401814981,3.02159391 0.401814981,3.02159391 L0.299935606,2.26243603 L0.141772708,1.23566914 L0.0631715355,0.315067662 L0.0503439022,0.0030676691 C0.052720966,0.0815037573 0.0577061126,0.161443605 0.0655425199,0.242947362 C0.0731418288,0.324270669 0.0833553003,0.407218035 0.0966510511,0.491548859 C0.109478685,0.57539848 0.125151499,0.661172914 0.143438477,0.748330809 C0.161962552,0.835067648 0.182857612,0.923608998 0.206603933,1.01365411 C0.444559575,1.92270672 0.851359702,2.87783451 1.50110062,3.94857133 C2.21590986,5.12709762 2.76020884,5.72860137 3.74811901,6.68348856 C4.72867302,7.63133815 5.38079712,8.32096218 6.56580293,9.18093212 C7.28652142,9.70418021 9.04457594,10.8005411 10.0835535,10.9408117 C10.4982326,10.996932 9.14075278,10.89612 8.60904433,10.6479997 C7.89191277,10.3127215 7.50477355,10.1167516 6.83962126,9.70700729 Z" id="path-7"></path>
        <linearGradient x1="49.9996061%" y1="99.9993637%" x2="49.9996061%" y2="-0.00109835097%" id="linearGradient-9">
            <stop stop-color="#ED1C24" offset="0%"></stop>
            <stop stop-color="#FFFFFF" offset="100%"></stop>
        </linearGradient>
        <linearGradient x1="49.9996061%" y1="99.9993637%" x2="49.9996061%" y2="-0.00109835097%" id="linearGradient-10">
            <stop stop-color="#ED1C24" offset="0%"></stop>
            <stop stop-color="#FFFFFF" offset="100%"></stop>
        </linearGradient>
        <path d="M22.2023234,17.6292327 L21.4433653,18.4093228 L20.6378385,19.1141649 L20.2298468,19.429774 L19.3103304,19.793022 C18.8095056,19.950195 18.195603,20.1755183 17.5311194,20.2697138 C16.895878,20.3592777 15.9051105,20.4858942 15.1235976,20.3219243 C14.3522373,20.1602401 13.8373689,19.9812326 12.9620501,19.6118491 C12.0959721,19.2460145 11.1845413,18.7782251 10.2448412,18.2072176 C8.93988785,17.4149169 7.69189894,16.4917891 6.5442209,15.496962 C5.39669484,14.5014132 4.33967962,13.4246012 3.42134872,12.324511 C2.4947133,11.2143155 1.70200811,10.0712178 1.09738885,8.95512758 C0.482319022,7.82051107 0.224179614,6.70231561 0.0505828245,5.67199985 C0.0170984452,5.47013522 0.0465460712,5.28030063 0.0332472807,5.09233069 C0.0194730772,4.90321791 0.197107228,3.70772923 0.405614636,2.84372925 C0.495140577,2.47488715 0.539550935,2.26387964 0.663991142,1.90508266 C0.809800604,1.48378943 1.11971258,0.857142835 1.11971258,0.857142835 L1.27288425,0.589293217 L1.61532735,0.0347669164 C1.48899036,0.229112776 1.38331133,0.440060139 1.29829634,0.667969908 C1.21399265,0.894736818 1.15105821,1.13792478 1.10949911,1.3975338 C1.0686513,1.6548571 1.04870464,1.92763905 1.0513188,2.2166616 C1.05368979,2.50327813 1.07839058,2.80499241 1.12564612,3.12150368 C1.29117123,4.23380441 1.72362054,5.42929308 2.35720837,6.63885699 C2.98011461,7.82827047 3.80131417,9.04066141 4.7650038,10.2133531 C5.72013971,11.3745561 6.82296355,12.5070674 8.02438391,13.5495937 C9.22434521,14.5913982 10.5340405,15.5533229 11.9083603,16.3743154 C13.0209599,17.0394582 14.0986027,17.5662552 15.1171533,17.955368 C16.1490179,18.3498341 17.1243436,18.6050522 18.0146178,18.72018 C18.9201515,18.8369319 19.7408769,18.8094431 20.4449985,18.6336837 C21.1633459,18.4544356 21.7613203,18.1207815 22.2023234,17.6292327" id="path-11"></path>
        <radialGradient cx="68.8799565%" cy="99.1850186%" fx="68.8799565%" fy="99.1850186%" r="119.313286%" gradientTransform="translate(0.688800,0.991850),scale(0.928829,1.000000),translate(-0.688800,-0.991850)" id="radialGradient-13">
            <stop stop-color="#FFFFFF" offset="0%"></stop>
            <stop stop-color="#ED1C24" offset="100%"></stop>
        </radialGradient>
        <radialGradient cx="68.8799565%" cy="99.1850186%" fx="68.8799565%" fy="99.1850186%" r="120.63377%" gradientTransform="translate(0.688800,0.991850),scale(0.918662,1.000000),translate(-0.688800,-0.991850)" id="radialGradient-14">
            <stop stop-color="#FFFFFF" offset="0%"></stop>
            <stop stop-color="#ED1C24" offset="100%"></stop>
        </radialGradient>
        <path d="M24.6754426,17.4356086 L23.4229548,20.71218 L23.0983124,21.4292927 C22.6623552,22.1550671 21.9441901,22.6292325 21.1246806,22.9238491 C20.3236527,23.2117288 18.8961377,23.1945257 17.8303498,23.0860145 C16.7847457,22.9790671 15.6320217,22.6844506 14.4161323,22.2060746 C13.2173261,21.7344957 11.951342,21.0817438 10.6544743,20.248601 C9.21084884,19.3207213 7.85367303,18.2481198 6.6258679,17.0961199 C5.3971508,15.9436387 4.28673979,14.7018342 3.34417014,13.4365711 C2.39283393,12.1595185 1.60416549,10.8477591 1.03516571,9.57022534 C0.455247242,8.2706765 0.098553918,6.99693217 0.0289746452,5.82375925 C0.00285126072,5.38039083 0.0185240756,4.96685702 0.0740963023,4.58315779 C0.129899548,4.19548862 0.22631958,3.8395187 0.360967176,3.51524803 C0.496569245,3.18821045 0.670879153,2.89263151 0.882231133,2.63133828 C1.09501179,2.36745859 1.34531479,2.13792476 1.63028887,1.9445413 L2.61463648,1.3249323 L3.5519778,0.82917291 L4.59046898,0.376180442 L5.52019883,0.0479398484 C5.07256914,0.186586462 4.67308867,0.38393984 4.32801924,0.636511263 C3.98653669,0.885593964 3.69776295,1.1886917 3.46668316,1.54466161 C3.23896531,1.8959398 3.06750666,2.29768415 2.95707958,2.7476691 C2.84784407,3.19290217 2.79915986,3.68517284 2.81530687,4.22201493 C2.84784407,5.32872167 3.15252773,6.52818027 3.66925034,7.75001486 C4.1777353,8.95181932 4.89492768,10.1839998 5.77000333,11.3806313 C6.6368109,12.5676989 7.66484541,13.7286012 8.80808547,14.8016838 C9.95035278,15.8742853 11.2184647,16.8686312 12.5702297,17.7210823 C13.9202926,18.5728116 15.2389854,19.2105258 16.4762746,19.6353679 C17.7327747,20.0669469 19.3818247,20.3841799 20.4266993,20.3771423 C21.4941895,20.3700446 22.4245881,20.1320296 23.1522371,19.6559995 C23.8969694,19.1689619 24.0392284,18.3484507 24.2845341,17.353383 L24.6754426,17.4356086 Z" id="path-15"></path>
        <radialGradient cx="68.8781379%" cy="99.185664%" fx="68.8781379%" fy="99.185664%" r="113.655095%" gradientTransform="translate(0.688781,0.991857),scale(0.935438,1.000000),translate(-0.688781,-0.991857)" id="radialGradient-17">
            <stop stop-color="#FFFFFF" offset="0%"></stop>
            <stop stop-color="#ED1C24" offset="100%"></stop>
        </radialGradient>
        <radialGradient cx="68.8781379%" cy="99.185664%" fx="68.8781379%" fy="99.185664%" r="113.43852%" gradientTransform="translate(0.688781,0.991857),scale(0.937224,1.000000),translate(-0.688781,-0.991857)" id="radialGradient-18">
            <stop stop-color="#FFFFFF" offset="0%"></stop>
            <stop stop-color="#ED1C24" offset="100%"></stop>
        </radialGradient>
        <path d="M19.9387021,13.194526 C20.0255774,13.4347064 20.5485314,13.6125711 20.6169252,13.8552779 C20.6858054,14.0993681 20.7451407,14.3449019 20.795053,14.5913982 C20.8453908,14.8383756 20.995006,16.1903154 21.006861,16.4407815 C20.9543954,16.5862251 20.969594,16.7178342 20.890014,16.8660447 C20.5176478,17.5639094 20.1362841,17.8286913 19.5212264,18.2380146 C18.815889,18.7067664 17.4644279,19.0136537 16.4233225,19.0347665 C15.4011851,19.0556988 14.2465765,18.8632777 13.0168867,18.4612326 C11.804341,18.0646011 10.513188,17.4619545 9.19419112,16.6515485 C7.88522536,15.847759 6.66295251,14.9090523 5.56719297,13.8959395 C4.4702783,12.882526 3.49191287,11.7866463 2.67471358,10.6686914 C1.85234676,9.54207496 1.18762,8.3860449 0.730931935,7.26057126 C0.267617265,6.11981941 0.01495544,5.00378937 0.0291813464,3.98099238 C0.0382397227,3.33954879 0.151013468,2.77088715 0.356924343,2.27771423 C0.566178914,1.77912777 0.870820013,1.35783455 1.26051257,1.01900749 C1.65591982,0.675969907 2.1256787,0.398015028 2.69374225,0.270676685 C3.27864586,0.139548869 3.85856432,0.0443909763 4.60116878,0.012210526 L4.75576914,0.0164210522 L5.85529795,0.0850526296 L6.93008344,0.220150371 L7.46300775,0.312962398 L8.4454464,0.529864647 L9.39487371,0.797714265 L9.65397972,0.881563886 L10.5174436,1.19290223 L10.7017116,1.26646613 C9.70644537,0.861593964 8.76674521,0.623097731 7.91775039,0.542075174 C7.07830034,0.462616529 6.32925168,0.537383445 5.70209588,0.757052612 C5.08296499,0.974375914 4.58359919,1.33221049 4.23093047,1.82141349 C3.88324688,2.30381949 3.67879507,2.91374429 3.64341269,3.64378938 C3.60420026,4.46261643 3.78111217,5.35735326 4.13238263,6.2742254 C4.4790935,7.18117277 4.99724478,8.11464641 5.64865753,9.02279675 C6.29581469,9.92553356 7.07732764,10.8089622 7.95811795,11.6240598 C8.83896904,12.4384358 9.82304915,13.1891726 10.8803258,13.8265861 C11.9430132,14.467368 12.9843617,14.9372628 13.9611465,15.2370522 C14.9485703,15.5406312 15.8749564,15.6722402 16.6919125,15.6310974 C17.520906,15.5892928 18.239983,15.3698041 18.7973467,14.9708868 C19.3635256,14.5652929 19.7631885,13.9737139 19.9387021,13.194526" id="path-19"></path>
        <radialGradient cx="68.8795007%" cy="99.1869072%" fx="68.8795007%" fy="99.1869072%" r="117.775797%" gradientTransform="translate(0.688795,0.991869),scale(0.905201,1.000000),translate(-0.688795,-0.991869)" id="radialGradient-21">
            <stop stop-color="#FFFFFF" offset="0%"></stop>
            <stop stop-color="#ED1C24" offset="100%"></stop>
        </radialGradient>
        <radialGradient cx="68.8795007%" cy="99.1869072%" fx="68.8795007%" fy="99.1869072%" r="117.561765%" gradientTransform="translate(0.688795,0.991869),scale(0.906849,1.000000),translate(-0.688795,-0.991869)" id="radialGradient-22">
            <stop stop-color="#FFFFFF" offset="0%"></stop>
            <stop stop-color="#ED1C24" offset="100%"></stop>
        </radialGradient>
        <polygon id="path-23" points="0 0 0 59.0676677 87.7264226 59.0676677 87.7264226 0"></polygon>
    </defs>
    <g id="Page-1" stroke="none" stroke-width="1" fill="none" fill-rule="evenodd">
        <g id="reddot-logo">
            <g id="g10" transform="translate(44.000000, 30.183461) scale(-1, 1) rotate(-180.000000) translate(-44.000000, -30.183461) translate(0.000000, 0.409025)">
                <g id="g12">
                    <g id="g14">
                        <g id="g16-Clipped">
                            <g>
                                <mask id="mask-2" fill="white">
                                    <use xlink:href="#path-1"></use>
                                </mask>
                                <g id="path-1"></g>
                                <g id="g16" mask="url(#mask-2)" fill-rule="nonzero">
                                    <path d="M0.461895727,15.8164808 L1.51724763,15.8164808 L1.51724763,14.7027966 L1.54100003,14.7027966 C1.57970787,14.8108267 1.64026524,14.936541 1.72266607,15.0798793 C1.80459878,15.2224959 1.91407747,15.3583154 2.05086503,15.4856538 C2.18765259,15.6132327 2.35578578,15.7220447 2.55527068,15.8106462 C2.7547495,15.8999094 2.99103937,15.9438191 3.26485159,15.9438191 L3.26485159,14.807338 C3.03022749,14.807338 2.8055676,14.7737139 2.59065306,14.7086312 C2.37549535,14.6428869 2.18954938,14.526556 2.03352644,14.3601801 C1.87702931,14.1941049 1.75211491,13.9713079 1.65830904,13.6931124 C1.56427216,13.4147365 1.51724763,13.0627365 1.51724763,12.6369922 L1.51724763,10.2929922 L0.461895727,10.2929922 L0.461895727,15.8164808" id="path22" fill="#231F20"></path>
                                    <path d="M7.0996392,14.156932 C7.0996392,14.2422252 7.08395422,14.340932 7.05288826,14.4529921 C7.0212751,14.5652929 6.96856634,14.6715185 6.89421469,14.7720899 C6.82016702,14.8726613 6.71657324,14.9577139 6.58337256,15.0277289 C6.45059743,15.0967816 6.2825007,15.1320297 6.07944717,15.1320297 C5.86048981,15.1320297 5.68048344,15.0935335 5.53965914,15.0159996 C5.39907193,14.9384658 5.28579359,14.8456537 5.19958701,14.7375635 C5.11338655,14.6287515 5.05330338,14.5206613 5.017921,14.4125711 C4.98253251,14.3040598 4.96496292,14.2194282 4.96496292,14.156932 L7.0996392,14.156932 Z M8.02608614,10.351278 C7.79926199,10.2967817 7.58648132,10.2525712 7.38701469,10.2178043 C7.187548,10.1825562 6.93555494,10.1656539 6.63060987,10.1656539 C5.78616246,10.1656539 5.11338655,10.4205712 4.61325473,10.9316087 C4.11288584,11.4422253 3.86258892,12.2387365 3.86258892,13.3219245 C3.86258892,13.9175335 3.94665552,14.3872477 4.1147887,14.7314282 C4.2829219,15.0759094 4.48810324,15.3390673 4.73056981,15.5204206 C4.97279934,15.702556 5.2231023,15.8183455 5.48124173,15.8686312 C5.73938116,15.9191575 5.95809531,15.9438191 6.13787064,15.9438191 C6.48196738,15.9438191 6.77906997,15.8900447 7.0293608,15.7817139 C7.27916526,15.6731425 7.48866303,15.5204206 7.65675972,15.3237891 C7.82491723,15.1264357 7.94984987,14.8919094 8.03198324,14.6209921 C8.11417733,14.3503154 8.15527443,14.0523906 8.15527443,13.7276989 L8.15527443,13.4609922 L4.91817551,13.4609922 C4.91817551,13.205353 4.95356395,12.9311275 5.02385452,12.6369922 C5.09415116,12.3430373 5.20932629,12.0739846 5.36962308,11.8303756 C5.52991986,11.5871877 5.74104085,11.3839396 6.00321697,11.2213531 C6.26493111,11.0589471 6.58738499,10.9781651 6.97045096,10.9781651 C7.21296008,10.9781651 7.41814143,11.0009622 7.58648132,11.0472178 C7.75463884,11.0937742 7.90091034,11.1360599 8.02608614,11.1747967 L8.02608614,10.351278 Z" id="path24" fill="#231F20"></path>
                                    <path d="M10.1369918,13.0549771 C10.1369918,12.8458944 10.1489075,12.6198493 10.1723742,12.3761802 C10.1959016,12.1322704 10.244598,11.9079095 10.3188888,11.7030373 C10.3932405,11.4978644 10.504616,11.3256539 10.6532584,11.1865862 C10.8017185,11.0472178 10.9971728,10.9781651 11.2396211,10.9781651 C11.4507603,10.9781651 11.6326574,11.0432478 11.7848868,11.1747967 C11.9372985,11.3064057 12.0624743,11.4750674 12.1602926,11.6799997 C12.2581717,11.8843907 12.3300916,12.1092328 12.3773897,12.3524207 C12.4241406,12.5963305 12.4476681,12.8341049 12.4476681,13.0662854 C12.4476681,13.3059245 12.4282139,13.5498342 12.3890014,13.797714 C12.3498498,14.0448718 12.2833406,14.2673681 12.1895348,14.464962 C12.0957289,14.6623756 11.970553,14.8226162 11.8143113,14.9464057 C11.6578263,15.069774 11.4626153,15.1320297 11.2280094,15.1320297 C11.0244695,15.1320297 10.8525427,15.0775334 10.711682,14.9694432 C10.5711251,14.861353 10.4576218,14.7138042 10.3716585,14.5281801 C10.2854519,14.342556 10.225083,14.1240899 10.1899438,13.8729019 C10.1548046,13.6212328 10.1369918,13.348932 10.1369918,13.0549771 Z M12.4476681,11.1400298 L12.4241406,11.1400298 C12.3928315,11.062496 12.3400619,10.9680599 12.265771,10.8559396 C12.1914194,10.7436388 12.0917165,10.6374734 11.9667838,10.536902 C11.841608,10.4365712 11.6889531,10.3489321 11.5093662,10.2753682 C11.3293538,10.2020449 11.1182754,10.1656539 10.875827,10.1656539 C10.5397552,10.1656539 10.2504951,10.237293 10.0082899,10.3799095 C9.76584154,10.5232479 9.56631408,10.7206012 9.41007231,10.9720298 C9.25358734,11.2229772 9.14032723,11.5190373 9.06980563,11.859729 C8.99946645,12.1996989 8.96408407,12.5676989 8.96408407,12.9621651 C8.96408407,13.8827666 9.13436936,14.6099846 9.47445366,15.143338 C9.81472029,15.6774131 10.3010761,15.9438191 10.934676,15.9438191 C11.1693427,15.9438191 11.3725786,15.9135635 11.5445662,15.8510071 C11.7162498,15.7894733 11.861123,15.7119395 11.9783955,15.6191274 C12.0957289,15.5263154 12.1914194,15.4295335 12.265771,15.328962 C12.3400619,15.2286312 12.3928315,15.1358192 12.4241406,15.050526 L12.4476681,15.050526 L12.4476681,18.3000296 L13.5029993,18.3000296 L13.5029993,10.2929922 L12.4476681,10.2929922 L12.4476681,11.1400298 Z" id="path26" fill="#231F20"></path>
                                    <path d="M15.8956265,13.0549771 C15.8956265,12.8458944 15.9074815,12.6198493 15.9310089,12.3761802 C15.9545364,12.1322704 16.0029288,11.9079095 16.0775236,11.7030373 C16.1518752,11.4978644 16.2632507,11.3256539 16.4118932,11.1865862 C16.5602925,11.0472178 16.7555035,10.9781651 16.9982559,10.9781651 C17.2090911,10.9781651 17.391049,11.0432478 17.5434607,11.1747967 C17.6959332,11.3064057 17.8211091,11.4750674 17.9189274,11.6799997 C18.0165633,11.8843907 18.0887263,12.1092328 18.1359636,12.3524207 C18.1827753,12.5963305 18.2063028,12.8341049 18.2063028,13.0662854 C18.2063028,13.3059245 18.1865446,13.5498342 18.1476362,13.797714 C18.1081805,14.0448718 18.0419753,14.2673681 17.9481695,14.464962 C17.8543636,14.6623756 17.7291878,14.8226162 17.572946,14.9464057 C17.4164003,15.069774 17.2210068,15.1320297 16.9865833,15.1320297 C16.782861,15.1320297 16.6108735,15.0775334 16.4703167,14.9694432 C16.3296991,14.861353 16.2161958,14.7138042 16.1299892,14.5281801 C16.0440259,14.342556 15.9837177,14.1240899 15.9485785,13.8729019 C15.9134393,13.6212328 15.8956265,13.348932 15.8956265,13.0549771 Z M18.2063028,11.1400298 L18.1827753,11.1400298 C18.1514054,11.062496 18.0984534,10.9680599 18.024345,10.8559396 C17.9500541,10.7436388 17.8502904,10.6374734 17.7254186,10.536902 C17.6002428,10.4365712 17.447527,10.3489321 17.2680009,10.2753682 C17.0879885,10.2020449 16.8766669,10.1656539 16.634401,10.1656539 C16.2983899,10.1656539 16.0088866,10.237293 15.7669247,10.3799095 C15.5241723,10.5232479 15.3247056,10.7206012 15.168707,10.9720298 C15.0122221,11.2229772 14.898658,11.5190373 14.8283796,11.859729 C14.7581012,12.1996989 14.7227188,12.5676989 14.7227188,12.9621651 C14.7227188,13.8827666 14.8930041,14.6099846 15.2330276,15.143338 C15.5731119,15.6774131 16.0597108,15.9438191 16.6933108,15.9438191 C16.9276735,15.9438191 17.1309702,15.9135635 17.302897,15.8510071 C17.4748237,15.7894733 17.619697,15.7119395 17.7370303,15.6191274 C17.8543636,15.5263154 17.9500541,15.4295335 18.024345,15.328962 C18.0984534,15.2286312 18.1514054,15.1358192 18.1827753,15.050526 L18.2063028,15.050526 L18.2063028,18.3000296 L19.2616341,18.3000296 L19.2616341,10.2929922 L18.2063028,10.2929922 L18.2063028,11.1400298 Z" id="path28" fill="#ED1C24"></path>
                                    <path d="M21.6544437,13.0549771 C21.6544437,12.8383756 21.668244,12.6061952 21.6957839,12.3585561 C21.7230806,12.1111576 21.7815041,11.8867366 21.8715407,11.6858343 C21.9612734,11.484511 22.0924071,11.3157892 22.264577,11.1806914 C22.4365038,11.0455937 22.6670972,10.9781651 22.9562965,10.9781651 C23.2377141,10.9781651 23.4647814,11.0455937 23.6364651,11.1806914 C23.8083918,11.3157892 23.9394647,11.484511 24.0295013,11.6858343 C24.1192339,11.8867366 24.1779006,12.1111576 24.2054405,12.3585561 C24.2325548,12.6061952 24.2465375,12.8383756 24.2465375,13.0549771 C24.2465375,13.278917 24.2325548,13.5131425 24.2054405,13.7570523 C24.1779006,14.0009621 24.1192339,14.2246011 24.0295013,14.4297741 C23.9394647,14.6346462 23.8083918,14.8033079 23.6364651,14.9346763 C23.4647814,15.0664658 23.2377141,15.1320297 22.9562965,15.1320297 C22.6670972,15.1320297 22.4365038,15.0664658 22.264577,14.9346763 C22.0924071,14.8033079 21.9612734,14.6346462 21.8715407,14.4297741 C21.7815041,14.2246011 21.7230806,14.0009621 21.6957839,13.7570523 C21.668244,13.5131425 21.6544437,13.278917 21.6544437,13.0549771 Z M22.9562965,10.1656539 C22.5340789,10.1656539 22.1685825,10.2349471 21.8598682,10.3743155 C21.5509107,10.5133832 21.2927774,10.7088719 21.0857114,10.9605411 C20.8786454,11.2119095 20.7259297,11.5154885 20.6283546,11.8714583 C20.5304755,12.2269471 20.4815359,12.621714 20.4815359,13.0549771 C20.4815359,13.9367816 20.682948,14.6386162 21.0857114,15.160962 C21.4882316,15.6830071 22.1118613,15.9438191 22.9562965,15.9438191 C23.79295,15.9438191 24.4125673,15.6830071 24.8153307,15.160962 C25.2178509,14.6386162 25.4194453,13.9367816 25.4194453,13.0549771 C25.4194453,12.621714 25.3703234,12.2269471 25.2726874,11.8714583 C25.1748692,11.5154885 25.0242812,11.2119095 24.8212277,10.9605411 C24.6179918,10.7088719 24.3617431,10.5133832 24.0530287,10.3743155 C23.7440713,10.2349471 23.3785749,10.1656539 22.9562965,10.1656539 Z" id="path30" fill="#ED1C24"></path>
                                    <path d="M29.6061782,10.2467366 C29.3558874,10.1926614 29.0787862,10.1656539 28.7735979,10.1656539 C28.4375868,10.1656539 28.1594522,10.2001802 27.9407744,10.2694734 C27.7217927,10.3395486 27.549866,10.4342253 27.4249334,10.5540448 C27.2995751,10.6743456 27.2138549,10.8172027 27.1668,10.9833381 C27.1200491,11.1494132 27.0965216,11.3256539 27.0965216,11.5115185 L27.0965216,15.0039696 L26.0996139,15.0039696 L26.0996139,15.8164808 L27.0965216,15.8164808 L27.0965216,17.116571 L28.1518528,17.7659544 L28.1518528,15.8164808 L29.7002272,15.8164808 L29.7002272,15.0039696 L28.1518528,15.0039696 L28.1518528,12.0570824 C28.1518528,11.9332929 28.1594522,11.8075786 28.1753803,11.6799997 C28.1910653,11.5519396 28.2280891,11.4363305 28.286999,11.3317892 C28.3454224,11.2269471 28.4353982,11.1418944 28.5565616,11.0761501 C28.6776642,11.0103456 28.840107,10.9781651 29.043343,10.9781651 C29.1371489,10.9781651 29.2347848,10.9852027 29.3366763,11.0009622 C29.4380815,11.0162403 29.5280573,11.035729 29.6061782,11.0589471 L29.6061782,10.2467366" id="path32" fill="#ED1C24"></path>
                                    <path d="M35.7984599,12.7650523 C35.5873207,12.7650523 35.3821393,12.7412929 35.1826727,12.6950373 C34.983206,12.6484809 34.8055646,12.5810523 34.6490796,12.4917891 C34.4925338,12.4029471 34.367662,12.2908869 34.2738561,12.1557892 C34.1800503,12.0202102 34.1329953,11.8632779 34.1329953,11.6858343 C34.1329953,11.4692328 34.1954921,11.2970223 34.3206071,11.1689621 C34.4457829,11.0413832 34.5863397,10.9781651 34.7428247,10.9781651 C34.9226547,10.9781651 35.0907515,11.0244208 35.2469932,11.1172328 C35.403539,11.2100448 35.5383812,11.3275185 35.651702,11.4708568 C35.7652053,11.6141952 35.8530533,11.7728117 35.9155501,11.9466463 C35.9782291,12.120541 36.0093559,12.2892628 36.0093559,12.4513681 L36.0093559,12.7650523 L35.7984599,12.7650523 Z M36.0093559,10.9781651 L35.9860716,10.9781651 C35.9549449,10.9006313 35.8998651,10.8153381 35.8219265,10.7225261 C35.7438057,10.629714 35.6457442,10.5427366 35.5284108,10.4609922 C35.4113815,10.3799095 35.2705207,10.3106163 35.1064364,10.2525712 C34.9423521,10.1942855 34.7547404,10.1656539 34.5436012,10.1656539 C34.0197352,10.1656539 33.6245712,10.3047216 33.3588386,10.5831576 C33.0928628,10.8615937 32.9600876,11.2175636 32.9600876,11.6505862 C32.9600876,12.0140749 33.0520089,12.3139245 33.2356081,12.5500749 C33.4193899,12.7859245 33.6580689,12.9715486 33.9510983,13.1066463 C34.2443708,13.2424658 34.5728433,13.3352778 34.9363943,13.3858042 C35.300006,13.4356087 35.6575991,13.4609922 36.0093559,13.4609922 L36.0093559,14.4243605 C35.9625442,14.694556 35.8590112,14.8809019 35.6986962,14.9812327 C35.5383812,15.0815034 35.3567273,15.1320297 35.1531874,15.1320297 C34.8328613,15.1320297 34.6039093,15.0469771 34.4673649,14.8766312 C34.3303342,14.7062853 34.2619404,14.508932 34.2619404,14.2849921 L33.1476993,14.2849921 C33.1476993,14.508932 33.1830817,14.7199395 33.2533601,14.9170523 C33.3239425,15.1144057 33.4409719,15.2901651 33.6053601,15.4452327 C33.7694444,15.5998793 33.9843529,15.7220447 34.2503287,15.8106462 C34.5160613,15.8999094 34.8442299,15.9438191 35.2356247,15.9438191 C35.6965684,15.9438191 36.0506354,15.870556 36.2969138,15.7236688 C36.5431922,15.5768417 36.7232046,15.4022853 36.8364647,15.2016237 C36.9494816,15.0007214 37.0159908,14.7956086 37.0356882,14.5864658 C37.0552032,14.3778042 37.0651735,14.2112478 37.0651735,14.0878794 L37.0651735,10.2929922 L36.0093559,10.2929922 L36.0093559,10.9781651 Z" id="path34" fill="#231F20"></path>
                                    <polyline id="path36" fill="#231F20" points="38.1091362 15.8164808 39.1293282 15.8164808 40.0089634 11.8134132 40.0321869 11.8134132 41.2521496 15.8164808 42.0498338 15.8164808 43.2694925 11.8134132 43.2927768 11.8134132 44.172412 15.8164808 45.192604 15.8164808 43.9379885 10.2929922 42.8237475 10.2929922 41.6627554 14.1224057 41.639228 14.1224057 40.513132 10.2929922 39.3990733 10.2929922 38.1091362 15.8164808"></polyline>
                                    <path d="M48.7462235,12.7650523 C48.5349017,12.7650523 48.3302069,12.7412929 48.1306794,12.6950373 C47.9312126,12.6484809 47.7530846,12.5810523 47.5968432,12.4917891 C47.4408442,12.4029471 47.3159116,12.2908869 47.2218628,12.1557892 C47.1280567,12.0202102 47.0813059,11.8632779 47.0813059,11.6858343 C47.0813059,11.4692328 47.1437416,11.2970223 47.2689178,11.1689621 C47.3935463,11.0413832 47.5346504,10.9781651 47.6906489,10.9781651 C47.8706613,10.9781651 48.0385758,11.0244208 48.1953038,11.1172328 C48.3515457,11.2100448 48.4862053,11.3275185 48.5997085,11.4708568 C48.7129686,11.6141952 48.8008774,11.7728117 48.8637997,11.9466463 C48.9262359,12.120541 48.9576058,12.2892628 48.9576058,12.4513681 L48.9576058,12.7650523 L48.7462235,12.7650523 Z M48.9576058,10.9781651 L48.9338349,10.9781651 C48.9025261,10.9006313 48.8478717,10.8153381 48.7699939,10.7225261 C48.6916297,10.629714 48.5938116,10.5427366 48.4767214,10.4609922 C48.3591447,10.3799095 48.2185882,10.3106163 48.0546862,10.2525712 C47.8901157,10.1942855 47.7025038,10.1656539 47.4919116,10.1656539 C46.9677416,10.1656539 46.5728209,10.3047216 46.3070882,10.5831576 C46.0411126,10.8615937 45.9083981,11.2175636 45.9083981,11.6505862 C45.9083981,12.0140749 46.0000152,12.3139245 46.1838577,12.5500749 C46.3676395,12.7859245 46.6063188,12.9715486 46.8993479,13.1066463 C47.1926815,13.2424658 47.5203634,13.3352778 47.8842183,13.3858042 C48.2475261,13.4356087 48.6056665,13.4609922 48.9576058,13.4609922 L48.9576058,14.4243605 C48.9107939,14.694556 48.8067748,14.8809019 48.6465204,14.9812327 C48.4862053,15.0815034 48.3045515,15.1320297 48.1014981,15.1320297 C47.7804422,15.1320297 47.5517333,15.0469771 47.4151893,14.8766312 C47.2786447,14.7062853 47.2102509,14.508932 47.2102509,14.2849921 L46.09601,14.2849921 C46.09601,14.508932 46.1313924,14.7199395 46.2016706,14.9170523 C46.2719489,15.1144057 46.3892825,15.2901651 46.55361,15.4452327 C46.717694,15.5998793 46.9326027,15.7220447 47.1985784,15.8106462 C47.4638856,15.8999094 47.7922971,15.9438191 48.1834489,15.9438191 C48.6448183,15.9438191 48.9987028,15.870556 49.2449204,15.7236688 C49.4907126,15.5768417 49.670725,15.4022853 49.7840458,15.2016237 C49.8975489,15.0007214 49.9640582,14.7956086 49.9835126,14.5864658 C50.00321,14.3778042 50.01318,14.2112478 50.01318,14.0878794 L50.01318,10.2929922 L48.9576058,10.2929922 L48.9576058,10.9781651 Z" id="path38" fill="#231F20"></path>
                                    <path d="M51.4435525,15.8164808 L52.4991266,15.8164808 L52.4991266,14.7027966 L52.522168,14.7027966 C52.5613194,14.8108267 52.6218707,14.936541 52.7038219,15.0798793 C52.7864416,15.2224959 52.8956893,15.3583154 53.0327199,15.4856538 C53.1692644,15.6132327 53.3374219,15.7220447 53.5368883,15.8106462 C53.7363551,15.8999094 53.9726634,15.9438191 54.2462385,15.9438191 L54.2462385,14.807338 C54.0118758,14.807338 53.7866929,14.7737139 53.5717846,14.7086312 C53.3568759,14.6428869 53.1711489,14.526556 53.0149069,14.3601801 C52.8581789,14.1941049 52.7334893,13.9713079 52.6396836,13.6931124 C52.5458779,13.4147365 52.4991266,13.0627365 52.4991266,12.6369922 L52.4991266,10.2929922 L51.4435525,10.2929922 L51.4435525,15.8164808" id="path40" fill="#231F20"></path>
                                    <path d="M55.8653774,13.0549771 C55.8653774,12.8458944 55.8765028,12.6198493 55.9002737,12.3761802 C55.9235577,12.1322704 55.9727406,11.9079095 56.0470313,11.7030373 C56.1211401,11.4978644 56.2327587,11.3256539 56.3811577,11.1865862 C56.5296178,11.0472178 56.7250722,10.9781651 56.9677639,10.9781651 C57.1785991,10.9781651 57.3603137,11.0432478 57.5127862,11.1747967 C57.6654411,11.3064057 57.7901303,11.4750674 57.8879489,11.6799997 C57.9860712,11.8843907 58.0584774,12.1092328 58.1052888,12.3524207 C58.1522831,12.5963305 58.1753241,12.8341049 58.1753241,13.0662854 C58.1753241,13.3059245 58.1558701,13.5498342 58.1171438,13.797714 C58.0775059,14.0448718 58.0114831,14.2673681 57.9176774,14.464962 C57.8238712,14.6623756 57.6986955,14.8226162 57.5424541,14.9464057 C57.3857256,15.069774 57.1905147,15.1320297 56.9558479,15.1320297 C56.7523691,15.1320297 56.5806852,15.0775334 56.4400676,14.9694432 C56.2992676,14.861353 56.1852779,14.7138042 56.0997401,14.5281801 C56.0137769,14.342556 55.9532256,14.1240899 55.9180862,13.8729019 C55.8824608,13.6212328 55.8653774,13.348932 55.8653774,13.0549771 Z M58.1753241,11.1400298 L58.1522831,11.1400298 C58.1207308,11.062496 58.0679613,10.9680599 57.9936702,10.8559396 C57.9195619,10.7436388 57.8197981,10.6374734 57.6944401,10.536902 C57.5697505,10.4365712 57.4172779,10.3489321 57.2372655,10.2753682 C57.0574965,10.2020449 56.8461748,10.1656539 56.603909,10.1656539 C56.2678976,10.1656539 55.9781515,10.237293 55.7359463,10.3799095 C55.4937411,10.5232479 55.2942136,10.7206012 55.1379717,10.9720298 C54.9812437,11.2229772 54.868409,11.5190373 54.7978873,11.859729 C54.7271225,12.1996989 54.6922266,12.5676989 54.6922266,12.9621651 C54.6922266,13.8827666 54.8625121,14.6099846 55.2027784,15.143338 C55.5423764,15.6774131 56.0292188,15.9438191 56.6625753,15.9438191 C56.8972422,15.9438191 57.1002349,15.9135635 57.2724048,15.8510071 C57.4445748,15.7894733 57.5894479,15.7119395 57.706295,15.6191274 C57.8238712,15.5263154 57.9195619,15.4295335 57.9936702,15.328962 C58.0679613,15.2286312 58.1207308,15.1358192 58.1522831,15.050526 L58.1753241,15.050526 L58.1753241,18.3000296 L59.2308987,18.3000296 L59.2308987,10.2929922 L58.1753241,10.2929922 L58.1753241,11.1400298 Z" id="path42" fill="#231F20"></path>
                                    <path d="M63.6639707,11.1400298 C63.828724,11.2718794 64.0293453,11.4422253 64.2676598,11.6505862 C64.5065821,11.859729 64.7564474,12.0975035 65.0190795,12.3644508 C65.2804956,12.6315786 65.5425199,12.9135636 65.8045442,13.2114884 C66.0659603,13.5091726 66.3030588,13.8110673 66.5140158,14.1165711 C66.7249723,14.4220147 66.8951971,14.7239094 67.0246893,15.0215936 C67.1529655,15.3195786 67.2180158,15.5960898 67.2180158,15.8510071 C67.2180158,16.1684808 67.1274318,16.4332628 66.9480883,16.6463755 C66.7681365,16.8590071 66.4787547,16.9654733 66.0799432,16.9654733 C65.6817391,16.9654733 65.3960054,16.8609319 65.2239567,16.651789 C65.0519085,16.4431274 64.9661883,16.2112477 64.9661883,15.9558492 L63.6761297,15.9558492 C63.6992318,16.1489921 63.7502992,16.35218 63.828724,16.5648718 C63.9065406,16.7775033 64.0354251,16.9748567 64.2147686,17.1569319 C64.3947204,17.338586 64.6354665,17.4875183 64.9363992,17.603368 C65.2373318,17.7196988 65.6227686,17.7779845 66.091494,17.7779845 C66.4124888,17.7779845 66.7115976,17.7331123 66.9888204,17.6445108 C67.266651,17.5551875 67.5086132,17.4276086 67.7159225,17.2615334 C67.9232313,17.0946763 68.0879847,16.8860146 68.2089655,16.6348868 C68.3299464,16.3832176 68.3907411,16.0949169 68.3907411,15.7702252 C68.3907411,15.2519094 68.2752313,14.7681199 68.0442126,14.319759 C67.8138013,13.8709771 67.5304992,13.4532328 67.1943059,13.0662854 C66.8581122,12.6797591 66.498209,12.3237892 66.1152039,11.9987967 C65.7321987,11.674105 65.3838463,11.3764208 65.0719707,11.1055035 L68.4491038,11.1055035 L68.4491038,10.2929922 L63.6639707,10.2929922 L63.6639707,11.1400298" id="path44" fill="#231F20"></path>
                                    <path d="M71.0049033,13.9713079 C71.0049033,13.631338 71.0231417,13.2828869 71.0577945,12.926917 C71.093663,12.5709471 71.1635769,12.2486012 71.2693593,11.9584358 C71.3751417,11.6682102 71.5295593,11.43212 71.7326132,11.2504659 C71.9356666,11.0686313 72.205594,10.9781651 72.5417873,10.9781651 C72.8858842,10.9781651 73.1588515,11.0686313 73.3625127,11.2504659 C73.5655665,11.43212 73.7224163,11.6682102 73.8318463,11.9584358 C73.9412764,12.2486012 74.0136215,12.5709471 74.0488826,12.926917 C74.0841433,13.2828869 74.1017738,13.631338 74.1017738,13.9713079 C74.1017738,14.3120598 74.0841433,14.6581049 74.0488826,15.0098643 C74.0136215,15.3618643 73.9412764,15.6830071 73.8318463,15.9734733 C73.7224163,16.2636387 73.5655665,16.5014131 73.3625127,16.6870372 C73.1588515,16.8726612 72.8858842,16.9654733 72.5417873,16.9654733 C72.205594,16.9654733 71.9356666,16.8726612 71.7326132,16.6870372 C71.5295593,16.5014131 71.3751417,16.2636387 71.2693593,15.9734733 C71.1635769,15.6830071 71.093663,15.3618643 71.0577945,15.0098643 C71.0231417,14.6581049 71.0049033,14.3120598 71.0049033,13.9713079 Z M72.5417873,10.1656539 C72.0025406,10.1656539 71.5587407,10.2737441 71.2103884,10.4903456 C70.8626443,10.706526 70.5848132,10.9910975 70.3781122,11.3435185 C70.1701951,11.6952779 70.027936,12.0993681 69.9495111,12.5556688 C69.8716945,13.0122102 69.8327857,13.4845109 69.8327857,13.9713079 C69.8327857,14.4591275 69.8716945,14.9307064 69.9495111,15.3872477 C70.027936,15.8434883 70.1701951,16.2476387 70.3781122,16.6001199 C70.5848132,16.9518191 70.8626443,17.2363906 71.2103884,17.452992 C71.5587407,17.6691725 72.0025406,17.7779845 72.5417873,17.7779845 C73.0810344,17.7779845 73.527266,17.6691725 73.8786578,17.452992 C74.2306578,17.2363906 74.5103127,16.9518191 74.7176215,16.6001199 C74.924323,16.2476387 75.0690137,15.8434883 75.1516941,15.3872477 C75.2331588,14.9307064 75.2744992,14.4591275 75.2744992,13.9713079 C75.2744992,13.4845109 75.2331588,13.0122102 75.1516941,12.5556688 C75.0690137,12.0993681 74.924323,11.6952779 74.7176215,11.3435185 C74.5103127,10.9910975 74.2306578,10.706526 73.8786578,10.4903456 C73.527266,10.2737441 73.0810344,10.1656539 72.5417873,10.1656539 Z" id="path46" fill="#231F20"></path>
                                    <polyline id="path48" fill="#231F20" points="78.6637909 16.6052928 77.185877 15.7236688 77.185877 16.7332928 78.8516458 17.6499244 79.8371241 17.6499244 79.8371241 10.2929922 78.6637909 10.2929922 78.6637909 16.6052928"></polyline>
                                    <path d="M84.0945609,15.7934432 C84.0945609,15.3752177 84.1960878,15.0622553 84.3991412,14.8535936 C84.6021946,14.6447515 84.8915765,14.54015 85.2666785,14.54015 C86.0491034,14.54015 86.4394039,14.9577139 86.4394039,15.7934432 C86.4394039,16.1571725 86.3403086,16.4431274 86.1409029,16.651789 C85.9414972,16.8609319 85.6496837,16.9654733 85.2666785,16.9654733 C84.8915765,16.9654733 84.6021946,16.8609319 84.3991412,16.651789 C84.1960878,16.4431274 84.0945609,16.1571725 84.0945609,15.7934432 Z M83.9650687,12.3355185 C83.9650687,11.8714583 84.0738909,11.5291426 84.2933588,11.3087516 C84.5122189,11.0878794 84.8368614,10.9781651 85.2666785,10.9781651 C85.7129096,10.9781651 86.0411998,11.0878794 86.2521568,11.3087516 C86.4631137,11.5291426 86.5688961,11.8714583 86.5688961,12.3355185 C86.5688961,12.7532628 86.469193,13.089744 86.2697873,13.3446613 C86.0703811,13.6003004 85.7360117,13.7276989 85.2666785,13.7276989 C84.8368614,13.7276989 84.5122189,13.6059545 84.2933588,13.3622854 C84.0738909,13.1186764 83.9650687,12.7760598 83.9650687,12.3355185 Z M85.2666785,10.1656539 C84.3833345,10.1656539 83.7498562,10.3571727 83.3668511,10.7401501 C82.9838459,11.1224058 82.7923433,11.6353681 82.7923433,12.2772328 C82.7923433,12.5947065 82.8348993,12.8611125 82.9212277,13.0780147 C83.0075557,13.2946162 83.1145542,13.4703756 83.2434381,13.6059545 C83.3729304,13.7410523 83.5157977,13.8475185 83.6714314,13.9250523 C83.8282811,14.0025861 83.9766195,14.06015 84.117663,14.098947 L84.117663,14.1224057 C84.016136,14.152962 83.8963708,14.2034884 83.7601915,14.2735034 C83.6227956,14.342556 83.4914796,14.4454733 83.3668511,14.5805711 C83.2416143,14.71615 83.1364402,14.8884207 83.0501117,15.0967816 C82.9637837,15.306165 82.9212277,15.5651124 82.9212277,15.8745259 C82.9212277,16.2069771 82.9820221,16.4931725 83.1030029,16.7332928 C83.2239842,16.9732327 83.3899531,17.170586 83.6015179,17.3249319 C83.8124744,17.4799996 84.0605159,17.5939845 84.34625,17.6675484 C84.631376,17.7408116 84.9383884,17.7779845 85.2666785,17.7779845 C85.5949687,17.7779845 85.9019806,17.7408116 86.1877148,17.6675484 C86.4728407,17.5939845 86.7214899,17.4799996 86.9324469,17.3249319 C87.1434039,17.170586 87.3093728,16.9732327 87.4309615,16.7332928 C87.5519428,16.4931725 87.6127371,16.2069771 87.6127371,15.8745259 C87.6127371,15.5651124 87.5713967,15.306165 87.4893241,15.0967816 C87.4072516,14.8884207 87.3057251,14.71615 87.1847438,14.5805711 C87.0631552,14.4454733 86.9342708,14.342556 86.7974832,14.2735034 C86.6600878,14.2034884 86.5330272,14.152962 86.4163018,14.1224057 L86.4163018,14.098947 C86.5494417,14.06015 86.6917008,14.0025861 86.8442951,13.9250523 C86.9968889,13.8475185 87.139148,13.7410523 87.2722879,13.6059545 C87.4054278,13.4703756 87.5166817,13.2946162 87.6066578,13.0780147 C87.6960257,12.8611125 87.7416215,12.5947065 87.7416215,12.2772328 C87.7416215,11.952541 87.6960257,11.6604508 87.6066578,11.4015636 C87.5166817,11.1418944 87.3738148,10.9215035 87.1786645,10.7401501 C86.9835143,10.5580148 86.7293935,10.4170824 86.4163018,10.3167516 C86.1032102,10.2161802 85.720205,10.1656539 85.2666785,10.1656539 Z" id="path50" fill="#231F20"></path>
                                    <polyline id="path52" fill="#231F20" points="0 4.77138032 0.861336075 4.77138032 1.60440259 1.39097741 1.62411215 1.39097741 2.65406169 4.77138032 3.32754893 4.77138032 4.35772949 1.39097741 4.37743906 1.39097741 5.12027457 4.77138032 5.98184163 4.77138032 4.92197515 0.107378042 3.9813266 0.107378042 3.00077865 3.34116683 2.98083198 3.34116683 2.03020099 0.107378042 1.08931535 0.107378042 0 4.77138032"></polyline>
                                    <path d="M7.15070655,4.77138032 L8.0419535,4.77138032 L8.0419535,0.107378042 L7.15070655,0.107378042 L7.15070655,4.77138032 Z M7.06139946,6.86845096 L8.13101743,6.86845096 L8.13101743,5.86935925 L7.06139946,5.86935925 L7.06139946,6.86845096 Z" id="path54" fill="#231F20"></path>
                                    <path d="M9.55731651,4.77138032 L10.4488067,4.77138032 L10.4488067,3.7723187 L10.4682609,3.7723187 C10.5082028,3.87053825 10.5623099,3.9833202 10.6319196,4.1099608 C10.7010429,4.23754576 10.7950312,4.35855027 10.9142491,4.47298034 C11.0329807,4.5871698 11.1780971,4.68327208 11.3500239,4.76221944 C11.5215251,4.84022847 11.7262201,4.87946454 11.9639265,4.87946454 C12.2346442,4.87946454 12.4542947,4.82730212 12.6226954,4.72274274 C12.7908529,4.61818335 12.919798,4.48778335 13.0088011,4.33106155 C13.097865,4.17410516 13.1572611,4.005642 13.187172,3.82636381 C13.2168397,3.64661645 13.2316128,3.48449315 13.2316128,3.34116683 L13.2316128,0.107378042 L12.3403051,0.107378042 L12.3403051,2.65507362 C12.3403051,2.87077286 12.336779,3.06203301 12.3303348,3.22838488 C12.3237082,3.39520593 12.3009102,3.5354766 12.2610291,3.64967209 C12.2215735,3.76409615 12.1572529,3.85056231 12.0677026,3.90907058 C11.9786387,3.96851719 11.854922,3.99788261 11.6965524,3.99788261 C11.5115548,3.99788261 11.3431541,3.94196682 11.1914111,3.83106156 C11.039425,3.72016231 10.9090208,3.57307059 10.8002595,3.38980443 C10.691255,3.20723601 10.6055348,3.00282098 10.5428557,2.77796083 C10.4799334,2.55239693 10.4488067,2.32213528 10.4488067,2.08693528 L10.4488067,0.107378042 L9.55731651,0.107378042 L9.55731651,4.77138032" id="path56" fill="#231F20"></path>
                                    <path d="M14.637485,4.77138032 L15.5289751,4.77138032 L15.5289751,3.7723187 L15.5486725,3.7723187 C15.5883105,3.87053825 15.6427216,3.9833202 15.7120273,4.1099608 C15.7813937,4.23754576 15.8754428,4.35855027 15.9944176,4.47298034 C16.1131492,4.5871698 16.2585088,4.68327208 16.4301923,4.76221944 C16.6018759,4.84022847 16.8063277,4.87946454 17.0440341,4.87946454 C17.3148127,4.87946454 17.5344631,4.82730212 17.702803,4.72274274 C17.8712037,4.61818335 17.9999056,4.48778335 18.0889695,4.33106155 C18.1780334,4.17410516 18.2373688,4.005642 18.2675229,3.82636381 C18.2972514,3.64661645 18.3119636,3.48449315 18.3119636,3.34116683 L18.3119636,0.107378042 L17.4204735,0.107378042 L17.4204735,2.65507362 C17.4204735,2.87077286 17.4168866,3.06203301 17.4107464,3.22838488 C17.4038158,3.39520593 17.3810179,3.5354766 17.3411367,3.64967209 C17.3017419,3.76409615 17.2373605,3.85056231 17.1480535,3.90907058 C17.0590504,3.96851719 16.9350904,3.99788261 16.77666,3.99788261 C16.5916624,3.99788261 16.4233225,3.94196682 16.2717619,3.83106156 C16.1197758,3.72016231 15.9894324,3.57307059 15.8804279,3.38980443 C15.7716666,3.20723601 15.6857032,3.00282098 15.6229633,2.77796083 C15.560041,2.55239693 15.5289751,2.32213528 15.5289751,2.08693528 L15.5289751,0.107378042 L14.637485,0.107378042 L14.637485,4.77138032" id="path58" fill="#231F20"></path>
                                    <path d="M22.1149618,3.37053826 C22.1149618,3.44220142 22.1016478,3.52561194 22.0750198,3.62030066 C22.0486958,3.7147548 22.0040119,3.80474577 21.941576,3.88980441 C21.8786537,3.97509163 21.7912312,4.0465202 21.679187,4.10549764 C21.5665957,4.1642405 21.4245798,4.19361193 21.2531393,4.19361193 C21.0681418,4.19361193 20.916642,4.16071569 20.797424,4.09539238 C20.6786924,4.03030967 20.5827587,3.95206606 20.5102917,3.86043299 C20.4376423,3.7687999 20.3865749,3.67786457 20.3569073,3.5859969 C20.3271788,3.49459841 20.3124665,3.42269465 20.3124665,3.37053826 L22.1149618,3.37053826 Z M22.8972043,0.156250222 C22.7055193,0.110432478 22.52575,0.0735434567 22.3574101,0.0439379838 C22.1890095,0.0145676989 21.9762288,0 21.7185818,0 C21.0057059,0 20.4376423,0.214990671 20.0153639,0.646147353 C19.5924168,1.07730524 19.3815816,1.75047214 19.3815816,2.66517888 C19.3815816,3.16776533 19.4521031,3.56508262 19.5943622,3.85573524 C19.7363781,4.14591268 19.90946,4.36865553 20.1141549,4.5218525 C20.3189107,4.67528409 20.5302323,4.77326305 20.7482413,4.81602392 C20.9660071,4.85855026 21.1507615,4.87946454 21.3027476,4.87946454 C21.5929804,4.87946454 21.844244,4.833648 22.0555656,4.7422435 C22.2667048,4.65107959 22.4431303,4.5218525 22.5853894,4.35502546 C22.7274053,4.18890817 22.8328229,3.990839 22.9021894,3.76245404 C22.9714951,3.5338345 23.0059656,3.28242398 23.0059656,3.00822248 L23.0059656,2.78265858 L20.2725854,2.78265858 C20.2725854,2.56696535 20.302253,2.33482099 20.3616492,2.08693528 C20.4212278,1.83858041 20.5188637,1.61184357 20.653949,1.40554583 C20.7890952,1.19995185 20.9677093,1.02866765 21.188758,0.89168118 C21.4098675,0.754231561 21.6822268,0.685618029 22.0059573,0.685618029 C22.2104091,0.685618029 22.3837949,0.705593968 22.52575,0.744126298 C22.6675228,0.783596973 22.7915435,0.819314265 22.8972043,0.852445092 L22.8972043,0.156250222 Z" id="path60" fill="#231F20"></path>
                                    <path d="M24.0558253,4.77138032 L24.9473154,4.77138032 L24.9473154,3.83106156 L24.9670737,3.83106156 C25.0000851,3.92269464 25.0513348,4.02843298 25.1204581,4.14943749 C25.1900678,4.270442 25.2821714,4.38486605 25.3981065,4.49248109 C25.5132512,4.60056528 25.6555102,4.6914946 25.8236678,4.76668259 C25.9920077,4.84187057 26.1917175,4.87946454 26.4230405,4.87946454 L26.4230405,3.91917584 C26.2247289,3.91917584 26.0349893,3.89144652 25.8533354,3.8357593 C25.6716816,3.78054727 25.5148926,3.68256833 25.3830902,3.54205705 C25.2508622,3.40178638 25.1453838,3.21381646 25.0661079,2.97885105 C24.9870142,2.7431879 24.9473154,2.44596084 24.9473154,2.08693528 L24.9473154,0.107378042 L24.0558253,0.107378042 L24.0558253,4.77138032" id="path62" fill="#231F20"></path>
                                </g>
                            </g>
                        </g>
                    </g>
                    <g id="g64" transform="translate(16.779274, 31.157894)">
                        <g id="g66-Clipped">
                            <g>
                                <mask id="mask-4" fill="white">
                                    <use xlink:href="#path-3"></use>
                                </mask>
                                <g id="path-3"></g>
                                <g id="g66" mask="url(#mask-4)" fill="url(#radialGradient-6)" fill-rule="nonzero">
                                    <path d="M8.46374557,5.14827054 C8.45116112,5.40601489 8.36635282,5.61702244 8.22409376,5.77912768 C8.08329376,5.93936829 7.88546853,6.05100735 7.64563433,6.11091713 C7.40744163,6.17034573 7.12675355,6.1778645 6.81870795,6.13160887 C6.51163505,6.08457126 6.17659675,5.98357881 5.82745406,5.82496227 C5.47861541,5.66634573 5.14807587,5.46478182 4.8476296,5.23639083 C4.54773046,5.00775929 4.27792459,4.75115779 4.05091803,4.48258635 C3.8236683,4.21359388 3.63933946,3.93160892 3.51185345,3.65275179 C3.38290838,3.37196984 3.3111709,3.09467662 3.30995501,2.8350676 C3.30879992,2.57425557 3.37907833,2.35572927 3.50729387,2.18538341 C3.63648212,2.01383454 3.82458022,1.89052627 4.05851734,1.81930823 C4.29360956,1.74833078 4.57405447,1.73004507 4.88659883,1.76998492 C5.20054147,1.80944356 5.54609727,1.90815033 5.90800676,2.06839093 C6.27131453,2.22935333 6.61687028,2.43795483 6.92935391,2.67645106 C7.2416551,2.91422549 7.52143127,3.18279691 7.75366614,3.46357886 C7.98523226,3.7431578 8.16925713,4.03572922 8.29206195,4.32282696 C8.41456283,4.60902244 8.47657319,4.88980439 8.46374557,5.14827054 Z M10.8677413,7.25750359 C10.9073794,6.72252614 10.741836,6.20559383 10.3866139,5.49720289 C10.0916391,4.90977433 9.60005501,4.44974425 9.11017319,3.85293223 C8.61761635,3.25377435 8.02985542,2.70628565 7.3613594,2.19645107 C6.69286339,1.68727815 6.09847583,1.19879696 5.32377188,0.858105244 C4.55247242,0.518556379 3.85260647,0.141894733 3.1924393,0.0639398481 C2.5369533,-0.013172932 1.95375194,0.0333834578 1.47067907,0.191939845 C0.992652133,0.349834578 0.613659396,0.617263141 0.360511217,0.983338322 C0.11040276,1.34490222 -0.0168400687,1.80403003 0.00383005172,2.34869167 C0.0244393776,2.88793978 0.188098095,3.461233 0.46428738,4.03687208 C0.738531241,4.60902244 1.12567044,5.18466153 1.59658441,5.7332931 C2.06537059,6.28006002 2.61987696,6.80240585 3.23329318,7.26929305 C3.84664861,7.73636071 4.52110248,8.14989451 5.23282334,8.47933814 C5.94715841,8.81016519 6.63395355,9.02634564 7.26566889,9.13323284 C7.90206542,9.24180429 8.48508443,9.23939829 8.98402464,9.13202986 C9.48843636,9.02327797 9.93728195,8.85010502 10.242227,8.53052612 C10.5506982,8.20745842 10.8285289,7.78688702 10.8677413,7.25750359 Z" id="path78"></path>
                                </g>
                            </g>
                        </g>
                    </g>
                    <g id="g80" transform="translate(1.094301, 47.278194)">
                        <g id="g82-Clipped">
                            <g>
                                <mask id="mask-8" fill="white">
                                    <use xlink:href="#path-7"></use>
                                </mask>
                                <g id="path-6"></g>
                                <g id="g82" mask="url(#mask-8)" fill="url(#linearGradient-10)" fill-rule="nonzero">
                                    <path d="M6.83962126,9.70700729 C4.8417082,8.47602988 3.65408212,7.82845092 2.18954938,6.05383444 C1.6022687,5.34231564 1.25507147,4.93371415 0.846848754,4.10905253 C0.643090002,3.69804502 0.401814981,3.02159391 0.401814981,3.02159391 L0.299935606,2.26243603 L0.141772708,1.23566914 L0.0631715355,0.315067662 L0.0503439022,0.0030676691 C0.052720966,0.0815037573 0.0577061126,0.161443605 0.0655425199,0.242947362 C0.0731418288,0.324270669 0.0833553003,0.407218035 0.0966510511,0.491548859 C0.109478685,0.57539848 0.125151499,0.661172914 0.143438477,0.748330809 C0.161962552,0.835067648 0.182857612,0.923608998 0.206603933,1.01365411 C0.444559575,1.92270672 0.851359702,2.87783451 1.50110062,3.94857133 C2.21590986,5.12709762 2.76020884,5.72860137 3.74811901,6.68348856 C4.72867302,7.63133815 5.38079712,8.32096218 6.56580293,9.18093212 C7.28652142,9.70418021 9.04457594,10.8005411 10.0835535,10.9408117 C10.4982326,10.996932 9.14075278,10.89612 8.60904433,10.6479997 C7.89191277,10.3127215 7.50477355,10.1167516 6.83962126,9.70700729" id="path94"></path>
                                </g>
                            </g>
                        </g>
                    </g>
                    <g id="g96" transform="translate(0.243178, 38.556390)">
                        <g id="g98-Clipped">
                            <g>
                                <mask id="mask-12" fill="white">
                                    <use xlink:href="#path-11"></use>
                                </mask>
                                <g id="path-9"></g>
                                <g id="g98" mask="url(#mask-12)" fill="url(#radialGradient-14)" fill-rule="nonzero">
                                    <path d="M22.2023234,17.6292327 L21.4433653,18.4093228 L20.6378385,19.1141649 L20.2298468,19.429774 L19.3103304,19.793022 C18.8095056,19.950195 18.195603,20.1755183 17.5311194,20.2697138 C16.895878,20.3592777 15.9051105,20.4858942 15.1235976,20.3219243 C14.3522373,20.1602401 13.8373689,19.9812326 12.9620501,19.6118491 C12.0959721,19.2460145 11.1845413,18.7782251 10.2448412,18.2072176 C8.93988785,17.4149169 7.69189894,16.4917891 6.5442209,15.496962 C5.39669484,14.5014132 4.33967962,13.4246012 3.42134872,12.324511 C2.4947133,11.2143155 1.70200811,10.0712178 1.09738885,8.95512758 C0.482319022,7.82051107 0.224179614,6.70231561 0.0505828245,5.67199985 C0.0170984452,5.47013522 0.0465460712,5.28030063 0.0332472807,5.09233069 C0.0194730772,4.90321791 0.197107228,3.70772923 0.405614636,2.84372925 C0.495140577,2.47488715 0.539550935,2.26387964 0.663991142,1.90508266 C0.809800604,1.48378943 1.11971258,0.857142835 1.11971258,0.857142835 L1.27288425,0.589293217 L1.61532735,0.0347669164 C1.48899036,0.229112776 1.38331133,0.440060139 1.29829634,0.667969908 C1.21399265,0.894736818 1.15105821,1.13792478 1.10949911,1.3975338 C1.0686513,1.6548571 1.04870464,1.92763905 1.0513188,2.2166616 C1.05368979,2.50327813 1.07839058,2.80499241 1.12564612,3.12150368 C1.29117123,4.23380441 1.72362054,5.42929308 2.35720837,6.63885699 C2.98011461,7.82827047 3.80131417,9.04066141 4.7650038,10.2133531 C5.72013971,11.3745561 6.82296355,12.5070674 8.02438391,13.5495937 C9.22434521,14.5913982 10.5340405,15.5533229 11.9083603,16.3743154 C13.0209599,17.0394582 14.0986027,17.5662552 15.1171533,17.955368 C16.1490179,18.3498341 17.1243436,18.6050522 18.0146178,18.72018 C18.9201515,18.8369319 19.7408769,18.8094431 20.4449985,18.6336837 C21.1633459,18.4544356 21.7613203,18.1207815 22.2023234,17.6292327" id="path110"></path>
                                </g>
                            </g>
                        </g>
                    </g>
                    <g id="g112" transform="translate(2.674957, 32.781954)">
                        <g id="g114-Clipped">
                            <g>
                                <mask id="mask-16" fill="white">
                                    <use xlink:href="#path-15"></use>
                                </mask>
                                <g id="path-12"></g>
                                <g id="g114" mask="url(#mask-16)" fill="url(#radialGradient-18)" fill-rule="nonzero">
                                    <path d="M24.6754426,17.4356086 L23.4229548,20.71218 L23.0983124,21.4292927 C22.6623552,22.1550671 21.9441901,22.6292325 21.1246806,22.9238491 C20.3236527,23.2117288 18.8961377,23.1945257 17.8303498,23.0860145 C16.7847457,22.9790671 15.6320217,22.6844506 14.4161323,22.2060746 C13.2173261,21.7344957 11.951342,21.0817438 10.6544743,20.248601 C9.21084884,19.3207213 7.85367303,18.2481198 6.6258679,17.0961199 C5.3971508,15.9436387 4.28673979,14.7018342 3.34417014,13.4365711 C2.39283393,12.1595185 1.60416549,10.8477591 1.03516571,9.57022534 C0.455247242,8.2706765 0.098553918,6.99693217 0.0289746452,5.82375925 C0.00285126072,5.38039083 0.0185240756,4.96685702 0.0740963023,4.58315779 C0.129899548,4.19548862 0.22631958,3.8395187 0.360967176,3.51524803 C0.496569245,3.18821045 0.670879153,2.89263151 0.882231133,2.63133828 C1.09501179,2.36745859 1.34531479,2.13792476 1.63028887,1.9445413 L2.61463648,1.3249323 L3.5519778,0.82917291 L4.59046898,0.376180442 L5.52019883,0.0479398484 C5.07256914,0.186586462 4.67308867,0.38393984 4.32801924,0.636511263 C3.98653669,0.885593964 3.69776295,1.1886917 3.46668316,1.54466161 C3.23896531,1.8959398 3.06750666,2.29768415 2.95707958,2.7476691 C2.84784407,3.19290217 2.79915986,3.68517284 2.81530687,4.22201493 C2.84784407,5.32872167 3.15252773,6.52818027 3.66925034,7.75001486 C4.1777353,8.95181932 4.89492768,10.1839998 5.77000333,11.3806313 C6.6368109,12.5676989 7.66484541,13.7286012 8.80808547,14.8016838 C9.95035278,15.8742853 11.2184647,16.8686312 12.5702297,17.7210823 C13.9202926,18.5728116 15.2389854,19.2105258 16.4762746,19.6353679 C17.7327747,20.0669469 19.3818247,20.3841799 20.4266993,20.3771423 C21.4941895,20.3700446 22.4245881,20.1320296 23.1522371,19.6559995 C23.8969694,19.1689619 24.0392284,18.3484507 24.2845341,17.353383 L24.6754426,17.4356086" id="path126"></path>
                                </g>
                            </g>
                        </g>
                    </g>
                    <g id="g128" transform="translate(8.389637, 30.255638)">
                        <g id="g130-Clipped">
                            <g>
                                <mask id="mask-20" fill="white">
                                    <use xlink:href="#path-19"></use>
                                </mask>
                                <g id="path-15"></g>
                                <g id="g130" mask="url(#mask-20)" fill="url(#radialGradient-22)" fill-rule="nonzero">
                                    <path d="M19.9387021,13.194526 C20.0255774,13.4347064 20.5485314,13.6125711 20.6169252,13.8552779 C20.6858054,14.0993681 20.7451407,14.3449019 20.795053,14.5913982 C20.8453908,14.8383756 20.995006,16.1903154 21.006861,16.4407815 C20.9543954,16.5862251 20.969594,16.7178342 20.890014,16.8660447 C20.5176478,17.5639094 20.1362841,17.8286913 19.5212264,18.2380146 C18.815889,18.7067664 17.4644279,19.0136537 16.4233225,19.0347665 C15.4011851,19.0556988 14.2465765,18.8632777 13.0168867,18.4612326 C11.804341,18.0646011 10.513188,17.4619545 9.19419112,16.6515485 C7.88522536,15.847759 6.66295251,14.9090523 5.56719297,13.8959395 C4.4702783,12.882526 3.49191287,11.7866463 2.67471358,10.6686914 C1.85234676,9.54207496 1.18762,8.3860449 0.730931935,7.26057126 C0.267617265,6.11981941 0.01495544,5.00378937 0.0291813464,3.98099238 C0.0382397227,3.33954879 0.151013468,2.77088715 0.356924343,2.27771423 C0.566178914,1.77912777 0.870820013,1.35783455 1.26051257,1.01900749 C1.65591982,0.675969907 2.1256787,0.398015028 2.69374225,0.270676685 C3.27864586,0.139548869 3.85856432,0.0443909763 4.60116878,0.012210526 L4.75576914,0.0164210522 L5.85529795,0.0850526296 L6.93008344,0.220150371 L7.46300775,0.312962398 L8.4454464,0.529864647 L9.39487371,0.797714265 L9.65397972,0.881563886 L10.5174436,1.19290223 L10.7017116,1.26646613 C9.70644537,0.861593964 8.76674521,0.623097731 7.91775039,0.542075174 C7.07830034,0.462616529 6.32925168,0.537383445 5.70209588,0.757052612 C5.08296499,0.974375914 4.58359919,1.33221049 4.23093047,1.82141349 C3.88324688,2.30381949 3.67879507,2.91374429 3.64341269,3.64378938 C3.60420026,4.46261643 3.78111217,5.35735326 4.13238263,6.2742254 C4.4790935,7.18117277 4.99724478,8.11464641 5.64865753,9.02279675 C6.29581469,9.92553356 7.07732764,10.8089622 7.95811795,11.6240598 C8.83896904,12.4384358 9.82304915,13.1891726 10.8803258,13.8265861 C11.9430132,14.467368 12.9843617,14.9372628 13.9611465,15.2370522 C14.9485703,15.5406312 15.8749564,15.6722402 16.6919125,15.6310974 C17.520906,15.5892928 18.239983,15.3698041 18.7973467,14.9708868 C19.3635256,14.5652929 19.7631885,13.9737139 19.9387021,13.194526" id="path142"></path>
                                </g>
                            </g>
                        </g>
                    </g>
                    <g id="g144">
                        <g id="g146-Clipped">
                            <g>
                                <mask id="mask-24" fill="white">
                                    <use xlink:href="#path-23"></use>
                                </mask>
                                <g id="path-18"></g>
                                <g id="g146" mask="url(#mask-24)">
                                    <g transform="translate(0.000000, 29.774436)" id="Group">
                                        <g transform="translate(0.243178, 0.240601)">
                                            <path d="M16.0181274,27.1649317 C15.8765979,26.7006309 15.5548127,26.200661 15.0929571,25.6943151 C14.6262988,25.183037 14.0173813,24.6665858 13.3094905,24.17624 C12.5980128,23.6832475 11.7888992,23.2187663 10.9275631,22.813413 C10.0657407,22.4078792 9.15643775,22.0646009 8.24525023,21.8129919 C7.33929101,21.5629468 6.52233489,21.4290521 5.82225614,21.400601 C5.12905935,21.37221 4.55293446,21.4475784 4.11953675,21.6146761 C3.69160447,21.7798491 3.40306783,22.0340446 3.27720503,22.367037 C3.15252773,22.695037 3.18719881,23.0993678 3.40163916,23.5690821 C3.46599618,23.7109768 3.54531473,23.8545558 3.6381722,23.9995182 C3.73007521,24.1440595 3.83575424,24.2896836 3.95354353,24.4360896 C4.07085254,24.5817738 4.20004079,24.7279392 4.34039091,24.8738039 C4.48026683,25.0194881 4.63106753,25.1649317 4.79207561,25.3096535 L5.22452489,25.6849317 L5.64961204,26.0253828 L6.05263681,26.3251723 L6.45564334,26.6045708 L6.85171935,26.8609316 L7.23642676,27.0918489 L7.6173649,27.3061648 C7.6173649,27.3061648 6.84533593,26.7208414 6.46439775,26.2439091 C6.25088759,25.9762399 6.07707619,25.7420144 5.97828515,25.513864 C5.87876463,25.2845106 5.87025339,25.0897437 5.94077499,24.9337137 C6.01178292,24.7767813 6.16255323,24.6593077 6.38104857,24.5857437 C6.60069898,24.5124806 6.88880396,24.4835483 7.23241433,24.50424 C7.57724059,24.5253528 7.97738977,24.5963302 8.4193048,24.7220445 C8.86267889,24.8477588 9.30465469,25.0164204 9.7233462,25.2131122 C10.1419769,25.4099843 10.5364723,25.6344054 10.8857973,25.8719392 C11.2339065,26.109052 11.5364806,26.3585557 11.7718159,26.6064354 C12.0064218,26.8531722 12.1745793,27.0975031 12.2562871,27.3251723 C12.3370222,27.5519391 12.3251064,27.7408113 12.2341579,27.8881798 C12.1436957,28.0345256 11.9762678,28.1407512 11.745188,28.2025256 C11.5158104,28.2641196 11.2320218,28.2497437 10.8957676,28.1865858 C10.5670519,28.1249918 10.183074,28.0972625 9.75799905,27.9725106 C9.48320806,27.8923903 9.32696625,27.8319993 9.06336143,27.712661 C9.86791547,28.1249918 10.3469151,28.3199993 11.2118381,28.5890519 C11.7708432,28.7629467 12.1541524,28.8639391 12.6678049,28.9548865 C13.2655361,29.0606308 13.7697047,29.0531121 14.2237786,29.0157587 C14.680649,28.9781647 15.0677882,28.8832474 15.3689033,28.7332925 C15.673362,28.5820143 15.8908846,28.3745557 16.0048742,28.1139843 C16.1202621,27.8508264 16.1302324,27.5333527 16.0181274,27.1649317" id="path152" fill="#ED1C24" fill-rule="nonzero"></path>
                                            <path d="M27.2427931,7.37076672 C27.2427931,7.37076672 27.0438128,6.8350675 26.8640436,6.51903744 C26.6971019,6.22532314 26.3696021,5.80944347 26.3696021,5.80944347 C26.3696021,5.80944347 26.2603544,5.66658632 26.188617,5.57684197 C25.9882384,5.32306755 25.6550239,4.94123296 25.6550239,4.94123296 L25.2085493,4.46195478 C24.748092,3.98893223 24.2216118,3.53311269 23.6421797,3.10387962 C23.060559,2.6738646 22.4274454,2.27115784 21.7556057,1.90815033 C21.0830972,1.54514282 20.3737473,1.22159395 19.6411132,0.949473659 C18.9104244,0.67765412 18.1585792,0.457263144 17.4005329,0.299368413 C17.2516473,0.268090219 17.1041599,0.23939849 16.9576452,0.214075182 C16.8115561,0.188210522 16.6674124,0.165172928 16.5242414,0.145203004 C16.3817391,0.124751876 16.2411215,0.107127817 16.1017198,0.092330825 C15.9632908,0.0770526298 15.8260169,0.0648421038 15.6906884,0.0554586451 L14.8630324,0.0202105258 L14.6811354,0.0190075183 L13.7963326,0.0437293222 L12.8965137,0.124090223 C12.8965137,0.124090223 12.7428252,0.143578944 12.6447638,0.156932327 C12.270513,0.209323303 12.0598601,0.24415037 11.6903513,0.31975939 C11.3139728,0.39687217 10.7328384,0.549593973 10.7328384,0.549593973 L10.2512246,0.70983457 L10.1199085,0.772812009 C10.4599928,0.640962388 10.9037925,0.517172919 11.34437,0.450646605 C11.7875009,0.38393984 12.2610291,0.346345856 12.7611244,0.339308262 C13.2646242,0.332691721 13.7951167,0.356932322 14.3496231,0.414917283 C14.9058318,0.472481192 15.486419,0.564150361 16.0874939,0.691007504 C17.4648534,0.981233057 18.8289598,1.43115786 20.1243684,2.00138341 C21.4210537,2.57263151 22.6404692,3.26057135 23.7316692,4.02538336 C24.8164857,4.78550364 25.7673721,5.6167818 26.5375164,6.47957878 C26.804161,6.77798481 27.0228995,7.04890209 27.2468663,7.38249605 C27.2547088,7.39356374 27.2427931,7.37076672 27.2427931,7.37076672" id="path154" fill="#ED1C24" fill-rule="nonzero"></path>
                                            <path d="M19.3333715,28.3249316 L20.299882,27.9652324 L21.2531393,27.5317286 L21.5891504,27.3592775 C21.8553694,27.2196685 22.0883338,27.0573226 22.2840312,26.8724204 C22.4813701,26.6858339 22.6409556,26.4767512 22.7592008,26.2445708 C22.8779324,26.0108264 22.9548982,25.7544655 22.986025,25.4757888 C23.0178205,25.1941046 23.0023787,24.8900445 22.9363559,24.5641498 C22.7627877,23.7032174 22.2538772,22.7737137 21.4756471,21.8303754 C20.6841031,20.8707965 19.6185584,19.9034581 18.3549453,18.987789 C17.0799029,18.0632176 15.6128107,17.1992778 14.0397537,16.4570221 C12.4652377,15.7147665 10.7993476,15.1010523 9.13151205,14.6759695 C7.64016283,14.2960598 6.28724267,14.1019546 5.1105353,14.0754282 C3.95116646,14.0486613 2.96967011,14.1846613 2.19785998,14.4624357 C1.43983195,14.7347365 0.886979184,15.1426162 0.564251732,15.6665861 C0.248164857,16.1802101 0.154360811,16.8040297 0.306346991,17.5211424 L0.374025828,17.826586 L0.649740914,18.8397589 L0.994323983,19.8195484 L1.34840314,20.6479995 L1.67350766,21.323789 L1.6196012,21.187007 C1.63123726,21.2119093 1.60654255,21.1592777 1.60654255,21.1592777 C1.29900764,20.4845108 1.23679057,19.8959394 1.3944732,19.409804 C1.55667284,18.9079093 1.9532595,18.5154882 2.55384201,18.2509469 C3.16440089,17.9821349 3.98417786,17.846556 4.97920706,17.86418 C5.98728276,17.8813228 7.17089033,18.05618 8.4865435,18.4062552 C9.81210615,18.759398 11.1372432,19.2540146 12.3911292,19.84421 C13.6445896,20.4347063 14.8167679,21.1160897 15.8426746,21.8413829 C16.8602524,22.5620446 17.7265736,23.3212024 18.3806006,24.0730821 C19.0258123,24.8143753 19.4601888,25.5451422 19.6304133,26.2218339 C19.7183221,26.5711873 19.7311498,26.8886008 19.6758268,27.1731723 C19.6211726,27.454676 19.4998268,27.7032174 19.3190848,27.9177738 C19.1400451,28.1308865 18.9025819,28.3101346 18.6140514,28.4555783 C18.419509,28.5535632 18.202716,28.6360293 17.9635505,28.7023151 L17.6083284,28.7969917 C17.7621992,28.774676 17.848649,28.7584354 17.9635505,28.7298038 C17.9635505,28.7298038 18.3112341,28.6452323 18.5309453,28.5824955 C18.8475021,28.492691 19.3333715,28.3249316 19.3333715,28.3249316" id="path156" fill="#ED1C24" fill-rule="nonzero"></path>
                                            <path d="M25.7498025,24.0636987 L26.4683931,23.1708265 L27.1207178,22.2123904 L27.4125921,21.7231874 C27.499285,21.5707062 27.5736366,21.411428 27.6334584,21.2445709 C27.6947392,21.0772927 27.7422197,20.9024957 27.7747447,20.720601 C27.8084856,20.5380446 27.8267848,20.3477288 27.830554,20.1503754 C27.8341409,19.9520597 27.8229548,19.7471875 27.795658,19.5345559 C27.6546149,18.4374732 27.1048505,17.2608116 26.2204733,16.0742252 C25.3177969,14.8630372 24.0743676,13.6508267 22.5787628,12.5133831 C21.0657708,11.3630072 19.3105736,10.3000298 17.4147588,9.40318773 C15.5175457,8.50562386 13.5020874,7.78550355 11.4785434,7.31554868 C10.0370457,6.98002989 8.69932412,6.79861638 7.49194593,6.75446598 C6.29958396,6.71218029 5.23948644,6.80451113 4.33160611,7.01714269 C3.43797601,7.22628555 2.69514052,7.55049605 2.1194959,7.97581935 C1.55382159,8.39284191 1.15082111,8.90670654 0.925218905,9.5018945 L0.696996458,10.1515787 L0.384713497,11.262917 L0.16528497,12.3836989 L0.119926823,12.6987666 L0.0569948173,13.3296237 C0.0489207033,13.3897741 0.0593694494,13.3296237 0.0593694494,13.3296237 C0.139874705,12.72812 0.393267279,12.2020448 0.81454865,11.7640899 C1.28618608,11.2730223 1.96276168,10.8935335 2.82243198,10.6442704 C3.69730091,10.3900148 4.75907028,10.2713982 5.98016981,10.3077892 C7.21958671,10.3442404 8.61737319,10.5387666 10.1408218,10.9097742 C12.0477621,11.3738343 13.9506898,12.06412 15.745525,12.9118794 C17.5392051,13.7593981 19.2053384,14.7544658 20.6470793,15.8252026 C22.072892,16.8846312 23.2657403,18.0079995 24.1408768,19.1252326 C24.998626,20.2213529 25.544378,21.3040596 25.7051185,22.3085107 C25.7504712,22.5904355 25.7640284,22.8583453 25.747857,23.111819 C25.7322329,23.3637287 25.6868802,23.6012626 25.6144132,23.8244806 C25.5424933,24.0464956 25.4432159,24.2542551 25.319256,24.4475783 C25.2427766,24.5664956 25.1570564,24.6766911 25.0615483,24.785022 L25.0615483,24.7882701 L25.6588539,24.167037 L25.7498025,24.0636987" id="path158" fill="#ED1C24" fill-rule="nonzero"></path>
                                            <path d="M29.2929651,15.7213229 C29.3803267,14.8162402 29.4085962,14.2880598 29.2620815,13.3907365 C29.0357437,12.0042102 28.6707944,11.1870072 27.8849651,10.0575637 C27.0849098,8.90742835 25.974438,7.76902236 24.6341023,6.71218029 C23.2797839,5.64427056 21.7024105,4.6698946 19.9932955,3.85924802 C18.283451,3.04866158 16.4587049,2.4102255 14.6173012,2.01383454 C13.662828,1.80830071 12.7554705,1.67903755 11.9038615,1.62033078 C11.0583928,1.56156387 10.2702533,1.57329319 9.54710304,1.64848116 C8.83088335,1.72318793 8.17995697,1.86069168 7.6011936,2.05425559 C7.02863127,2.24649618 6.52829277,2.49437588 6.10534562,2.79133828 L5.21787401,3.47506758 L4.47741557,4.13581944 C4.47741557,4.13581944 3.97229862,4.62333821 3.67972523,4.96240588 C3.46955874,5.20439084 3.16582348,5.6038495 3.16582348,5.6038495 C3.11333961,5.66261639 3.16582348,5.6038495 3.16582348,5.6038495 C3.50779238,5.2161803 3.92836854,4.88132319 4.45652051,4.60643598 C5.07396131,4.28336831 5.81252297,4.04372922 6.66033836,3.89449614 C7.51906028,3.74532322 8.48745542,3.69010517 9.55111547,3.74063149 C10.6259617,3.79230066 11.7946139,3.9509172 13.0391983,4.22815027 C15.0383029,4.67272168 17.0248231,5.37359386 18.8904838,6.25750362 C20.7544423,7.14051108 22.4773576,8.19596973 23.9575207,9.34562382 C25.4213299,10.4825862 26.634362,11.7002102 27.5094984,12.9231877 C28.3670045,14.1224057 28.8937885,15.3174132 29.0162894,16.4393981 C29.0293603,16.56018 29.0376891,16.6790372 29.0412152,16.795789 C29.0450452,16.9126011 29.0274756,17.038556 29.0151343,17.1447214 C29.0020635,17.2631575 29.1647495,16.6346462 29.1647495,16.6346462 C29.1647495,16.6346462 29.2585554,16.078977 29.2929651,15.7213229" id="path160" fill="#ED1C24" fill-rule="nonzero"></path>
                                        </g>
                                    </g>
                                </g>
                            </g>
                        </g>
                    </g>
                </g>
            </g>
        </g>
    </g>
</svg>